<svg width="20" height="20" viewBox="0 0 20 20" fill="none" xmlns="http://www.w3.org/2000/svg">
<g clip-path="url(#clip0_5824_54425)">
<path d="M13.5266 7.23388L10.8308 10.1305C10.3716 10.5914 9.78828 10.833 9.16662 10.833C8.54495 10.833 7.96245 10.5914 7.52328 10.1522L6.29328 8.92221C5.96745 8.59638 5.96745 8.06971 6.29328 7.74388C6.61912 7.41805 7.14578 7.41805 7.47162 7.74388L8.70162 8.97388C8.94995 9.22221 9.38328 9.22221 9.63078 8.97388L12.3066 6.09888C12.6208 5.76138 13.1483 5.74388 13.4841 6.05638C13.8208 6.36971 13.84 6.89721 13.5266 7.23388ZM19.9375 16.7755C19.7491 17.228 19.33 17.5089 18.8408 17.5089H17.5391V18.8105C17.5391 19.5547 16.9316 19.9997 16.3433 19.9997C16.0291 19.9997 15.7416 19.8789 15.5125 19.6497L11.8741 16.0114C11.8741 16.0114 11.8716 16.0064 11.8691 16.0039C11.73 16.1155 11.5933 16.2297 11.4316 16.3197C10.9966 16.5614 10.5083 16.6822 10.0208 16.6822C9.53328 16.6822 9.04495 16.5614 8.60912 16.3197C8.44495 16.2289 8.30495 16.113 8.16328 15.9989C8.15995 16.003 8.15829 16.008 8.15495 16.0122L4.51662 19.6505C4.28828 19.8797 4.00078 20.0005 3.68578 20.0005C3.09828 20.0005 2.49078 19.5555 2.49078 18.8114V17.5097H1.18912C0.699951 17.5097 0.279951 17.2297 0.0924513 16.778C-0.0950487 16.3247 0.00411792 15.8297 0.349951 15.4839L3.30078 12.5339C3.25412 12.1822 3.26495 11.8314 3.34328 11.4872C3.39745 11.2497 3.28328 10.9939 3.05995 10.8497C2.64412 10.5814 2.30745 10.2172 2.05828 9.76888C1.82078 9.33971 1.69578 8.84805 1.69828 8.34471C1.69578 7.84888 1.81995 7.35638 2.05828 6.92721C2.30662 6.47805 2.64412 6.11388 3.05995 5.84638C3.28328 5.70221 3.39745 5.44638 3.34328 5.20971C3.23162 4.71555 3.24828 4.20971 3.39245 3.70555C3.66745 2.74888 4.43162 1.98471 5.38829 1.70971C5.89162 1.56555 6.39745 1.54888 6.89078 1.66055C7.12995 1.71305 7.38412 1.59971 7.52829 1.37638C7.79578 0.96138 8.15995 0.624714 8.60912 0.375547C9.47912 -0.106953 10.5608 -0.106953 11.4316 0.375547C11.8808 0.624714 12.2441 0.96138 12.5116 1.37721C12.6558 1.60055 12.9141 1.71555 13.1491 1.66055C13.6416 1.54805 14.1483 1.56555 14.6525 1.70971C15.6091 1.98471 16.3741 2.74888 16.6491 3.70555C16.7933 4.21055 16.81 4.71721 16.6983 5.21055C16.645 5.44721 16.7583 5.70305 16.9816 5.84721C17.3975 6.11555 17.735 6.47888 17.9833 6.92805C18.2208 7.35721 18.3458 7.84888 18.3433 8.35221C18.3458 8.84805 18.2216 9.34055 17.9833 9.76971C17.735 10.218 17.3975 10.5822 16.9825 10.8505C16.7583 10.9947 16.6441 11.2505 16.6983 11.488C16.7775 11.8355 16.7891 12.1897 16.74 12.5455L19.68 15.4855C20.0258 15.8314 20.1241 16.3264 19.9375 16.778V16.7755ZM6.75328 15.0564C6.30412 15.1364 5.84579 15.1155 5.38829 14.9855C4.86662 14.8364 4.41162 14.5314 4.05245 14.138L2.34828 15.8422H3.32495C3.78495 15.8422 4.15828 16.2155 4.15828 16.6755V17.6514L6.75412 15.0555L6.75328 15.0564ZM13.5183 13.4089C13.7341 13.458 13.9616 13.4489 14.1941 13.383C14.5966 13.268 14.9316 12.933 15.0475 12.5305C15.1133 12.2989 15.1225 12.0714 15.0733 11.8547C14.865 10.9372 15.2691 9.97055 16.0791 9.44805C16.2616 9.32971 16.4125 9.16555 16.5266 8.95971C16.6258 8.78055 16.6783 8.56971 16.6775 8.35055C16.6783 8.12471 16.6258 7.91388 16.5266 7.73388C16.4125 7.52721 16.2625 7.36305 16.0791 7.24555C15.2691 6.72305 14.8658 5.75638 15.0733 4.83971C15.1225 4.62305 15.1141 4.39555 15.0475 4.16305C14.9325 3.76138 14.5966 3.42638 14.1941 3.31055C13.9633 3.24388 13.7358 3.23638 13.5183 3.28471C12.6041 3.49471 11.6358 3.08971 11.1125 2.27971C10.995 2.09721 10.8308 1.94638 10.625 1.83221C10.2583 1.62888 9.78412 1.62971 9.41828 1.83221C9.21162 1.94721 9.04745 2.09721 8.92995 2.27971C8.40828 3.08888 7.44245 3.49471 6.52328 3.28555C6.30579 3.23638 6.07995 3.24471 5.84829 3.31138C5.44579 3.42721 5.10995 3.76138 4.99495 4.16388C4.92828 4.39555 4.91995 4.62305 4.96912 4.84055C5.17745 5.75638 4.77328 6.72388 3.96328 7.24638C3.78078 7.36388 3.63078 7.52805 3.51662 7.73471C3.41662 7.91471 3.36412 8.12555 3.36578 8.34388C3.36495 8.56971 3.41745 8.78055 3.51662 8.96055C3.63162 9.16721 3.78162 9.33138 3.96495 9.44971C4.77412 9.97138 5.17829 10.9389 4.96995 11.8555C4.92078 12.0714 4.92995 12.2997 4.99662 12.5322C5.11245 12.9339 5.44662 13.2689 5.84912 13.3839C6.07995 13.4505 6.30745 13.4589 6.52328 13.4097C6.68412 13.3739 6.84662 13.3555 7.00745 13.3555C7.76578 13.3555 8.49995 13.7472 8.93078 14.4147C9.04912 14.5972 9.21329 14.7472 9.41912 14.8622C9.78495 15.0655 10.2583 15.0655 10.6258 14.8622C10.8316 14.748 10.9958 14.5972 11.1133 14.4147C11.6366 13.6055 12.6058 13.2005 13.52 13.4089H13.5183ZM17.6825 15.8422L15.9841 14.1439C15.6258 14.5347 15.1725 14.8364 14.6525 14.9847C14.19 15.1164 13.7275 15.1364 13.275 15.0539L15.8725 17.6514V16.6755C15.8725 16.2155 16.2458 15.8422 16.7058 15.8422H17.6825Z" fill="#00694B"/>
</g>
<defs>
<clipPath id="clip0_5824_54425">
<rect width="20" height="20" fill="white"/>
</clipPath>
</defs>
</svg>
