<svg width="38" height="38" viewBox="0 0 38 38" fill="none" xmlns="http://www.w3.org/2000/svg">
<g clip-path="url(#clip0_3348_21465)">
<path d="M20.6794 16.6256V8.18219C22.4855 8.48716 24.1899 9.22819 25.6447 10.341C25.9345 10.5399 26.2767 10.6484 26.6282 10.6528C27.758 10.6528 28.6791 9.7437 28.6911 8.61393C28.6935 8.12935 28.5037 7.66359 28.1634 7.31865C26.0589 5.51667 23.4214 4.45491 20.6554 4.29628V1.46577C20.6554 0.657376 20.0005 0.00253796 19.1921 0.00253796C19.1754 0.000162938 19.1585 0.000162938 19.1418 0.000162938C18.3214 -0.0118606 17.645 0.643052 17.6329 1.46577V4.20032C12.2359 4.58411 8.56585 7.91834 8.56585 12.3559C8.56585 17.801 13.1954 19.3122 17.6329 20.5115V30.1064C15.2918 29.7922 13.085 28.8207 11.2763 27.2999C10.9358 27.0289 10.5135 26.8778 10.077 26.8682C8.97116 26.9449 8.11964 27.8708 8.13397 28.9791C8.13157 29.4637 8.32132 29.9294 8.66167 30.2744C11.1388 32.5052 14.325 33.7882 17.6568 33.8964V36.535C17.6568 36.5518 17.6592 36.5686 17.6592 36.5854C17.6976 37.4057 18.3956 38.039 19.216 37.9982C20.0244 37.9982 20.6792 37.3434 20.6792 36.535V33.8485C27.2277 33.4167 29.8662 29.4349 29.8662 25.2131C29.8664 19.5521 25.117 17.825 20.6794 16.6256ZM17.657 15.858C15.0424 15.0905 13.0035 14.2989 13.0035 12.0681C13.0035 9.83729 14.8505 8.23014 17.657 8.01431V15.858ZM20.6794 30.1543V21.4231C23.3899 22.1907 25.5007 23.2221 25.4768 25.7407C25.4768 27.5638 24.2294 29.7226 20.6794 30.1543Z" fill="#00694B"/>
</g>
<defs>
<clipPath id="clip0_3348_21465">
<rect width="38" height="38" fill="white"/>
</clipPath>
</defs>
</svg>
