<svg width="15" height="15" viewBox="0 0 15 15" fill="none" xmlns="http://www.w3.org/2000/svg">
<g clip-path="url(#clip0_8684_11443)">
<path d="M11.7591 14.0016C11.5433 14.0012 11.3297 13.9581 11.1307 13.8746C10.9317 13.7912 10.7512 13.6692 10.5996 13.5156L7.00884 9.95237L3.4246 13.5245C3.19441 13.7584 2.89908 13.9176 2.57709 13.9813C2.25511 14.045 1.92141 14.0101 1.61951 13.8814C1.31462 13.7591 1.05369 13.5477 0.870805 13.2748C0.687921 13.0019 0.591579 12.6802 0.59436 12.3516L0.585746 2.92849C0.585039 2.15494 0.891651 1.41279 1.43813 0.865312C1.98461 0.317831 2.7262 0.00986262 3.49974 0.00915546L10.4997 0.00275625C10.8828 0.0024061 11.2621 0.0775012 11.6161 0.223754C11.9701 0.370006 12.2918 0.584553 12.5629 0.855142C12.834 1.12573 13.0491 1.44707 13.196 1.8008C13.3429 2.15453 13.4187 2.53373 13.4191 2.91676L13.4277 12.3399C13.4313 12.6681 13.3358 12.9898 13.1539 13.263C12.9719 13.5362 12.7119 13.7483 12.4077 13.8715C12.2023 13.9576 11.9818 14.0019 11.7591 14.0016ZM3.50081 1.17582C3.03668 1.17625 2.59173 1.36103 2.26384 1.68952C1.93596 2.018 1.75199 2.46329 1.75241 2.92742L1.76103 12.3506C1.7609 12.4478 1.78959 12.5428 1.84347 12.6238C1.89734 12.7047 1.97399 12.7678 2.06372 12.8052C2.15345 12.8425 2.25225 12.8525 2.34763 12.8337C2.443 12.815 2.53069 12.7684 2.5996 12.6998L6.59937 8.71724C6.70857 8.6085 6.85636 8.54738 7.01047 8.54724C7.16458 8.5471 7.31248 8.60794 7.42187 8.71649L11.4243 12.6906C11.4933 12.759 11.5811 12.8054 11.6765 12.824C11.7719 12.8426 11.8707 12.8325 11.9603 12.7949C12.05 12.7574 12.1265 12.6941 12.1802 12.6131C12.234 12.5321 12.2625 12.437 12.2622 12.3398L12.2536 2.91782C12.2532 2.45369 12.0684 2.00874 11.7399 1.68085C11.4114 1.35296 10.9661 1.169 10.502 1.16942L3.50081 1.17582Z" fill="#0D0D0D" fill-opacity="0.65"/>
</g>
<defs>
<clipPath id="clip0_8684_11443">
<rect width="14" height="14" fill="white" transform="translate(0 0.0127984) rotate(-0.0523783)"/>
</clipPath>
</defs>
</svg>
