<svg width="25" height="25" viewBox="0 0 25 25" fill="none" xmlns="http://www.w3.org/2000/svg">
<path d="M11.6494 0.826172C11.8105 0.390959 12.4258 0.390954 12.5869 0.826172L15.2705 8.0791C15.4224 8.48968 15.7466 8.81389 16.1572 8.96582L23.4102 11.6494C23.8454 11.8105 23.8454 12.4258 23.4102 12.5869L16.1572 15.2705C15.7467 15.4224 15.4224 15.7466 15.2705 16.1572L12.5869 23.4102C12.4258 23.8454 11.8105 23.8454 11.6494 23.4102L8.96582 16.1572C8.81389 15.7466 8.48968 15.4224 8.0791 15.2705L0.826172 12.5869C0.390958 12.4258 0.390953 11.8105 0.826172 11.6494L8.0791 8.96582C8.48968 8.81389 8.81389 8.48968 8.96582 8.0791L11.6494 0.826172Z" stroke="white"/>
</svg>
