<svg width="30" height="30" viewBox="0 0 30 30" fill="none" xmlns="http://www.w3.org/2000/svg">
<path d="M21.0002 18.4998C20.8686 18.5006 20.7381 18.4754 20.6163 18.4256C20.4944 18.3758 20.3836 18.3025 20.2902 18.2098L15.7102 13.6198C15.6172 13.5261 15.5066 13.4517 15.3848 13.4009C15.2629 13.3502 15.1322 13.324 15.0002 13.324C14.8682 13.324 14.7375 13.3502 14.6156 13.4009C14.4937 13.4517 14.3831 13.5261 14.2902 13.6198L9.71019 18.2098C9.52188 18.3981 9.26649 18.5039 9.00019 18.5039C8.73388 18.5039 8.47849 18.3981 8.29019 18.2098C8.10188 18.0215 7.99609 17.7661 7.99609 17.4998C7.99609 17.2335 8.10188 16.9781 8.29019 16.7898L12.8802 12.2098C13.4501 11.6623 14.2098 11.3564 15.0002 11.3564C15.7905 11.3564 16.5502 11.6623 17.1202 12.2098L21.7102 16.7898C21.8039 16.8828 21.8783 16.9934 21.9291 17.1152C21.9798 17.2371 22.006 17.3678 22.006 17.4998C22.006 17.6318 21.9798 17.7625 21.9291 17.8844C21.8783 18.0063 21.8039 18.1169 21.7102 18.2098C21.6167 18.3025 21.5059 18.3758 21.3841 18.4256C21.2623 18.4754 21.1318 18.5006 21.0002 18.4998Z" fill="#0D0D0D" fill-opacity="0.65"/>
</svg>
