<svg width="453" height="110" viewBox="0 0 453 110" fill="none" xmlns="http://www.w3.org/2000/svg">
<g filter="url(#filter0_d_1312_19329)">
<rect x="24" y="8" width="312" height="70" rx="12" fill="white"/>
<rect x="24.5" y="8.5" width="311" height="69" rx="11.5" stroke="#0D0D0D" stroke-opacity="0.08"/>
<path d="M44.4 51.16C43.5253 51.16 42.7787 51 42.16 50.68C41.5413 50.36 40.992 49.896 40.512 49.288L41.536 48.264C41.888 48.7547 42.2933 49.128 42.752 49.384C43.2107 49.6293 43.776 49.752 44.448 49.752C45.1093 49.752 45.6373 49.608 46.032 49.32C46.4373 49.032 46.64 48.6373 46.64 48.136C46.64 47.72 46.544 47.384 46.352 47.128C46.16 46.872 45.8987 46.664 45.568 46.504C45.248 46.3333 44.896 46.184 44.512 46.056C44.128 45.9173 43.744 45.7733 43.36 45.624C42.976 45.464 42.624 45.272 42.304 45.048C41.984 44.8133 41.7227 44.5093 41.52 44.136C41.328 43.7627 41.232 43.2933 41.232 42.728C41.232 42.0987 41.3813 41.5653 41.68 41.128C41.9893 40.68 42.4053 40.3387 42.928 40.104C43.4613 39.8587 44.0587 39.736 44.72 39.736C45.4453 39.736 46.096 39.88 46.672 40.168C47.248 40.4453 47.7173 40.8133 48.08 41.272L47.056 42.296C46.7253 41.912 46.368 41.624 45.984 41.432C45.6107 41.24 45.1787 41.144 44.688 41.144C44.0907 41.144 43.616 41.2773 43.264 41.544C42.912 41.8 42.736 42.1627 42.736 42.632C42.736 43.0053 42.832 43.3093 43.024 43.544C43.2267 43.768 43.488 43.96 43.808 44.12C44.128 44.28 44.48 44.4293 44.864 44.568C45.2587 44.696 45.648 44.84 46.032 45C46.416 45.16 46.768 45.3627 47.088 45.608C47.408 45.8533 47.664 46.1733 47.856 46.568C48.0587 46.952 48.16 47.4373 48.16 48.024C48.16 49.0053 47.8187 49.7733 47.136 50.328C46.464 50.8827 45.552 51.16 44.4 51.16ZM53.3416 51.16C52.5843 51.16 51.9016 50.9893 51.2936 50.648C50.6856 50.296 50.2056 49.8213 49.8536 49.224C49.5016 48.6267 49.3256 47.9493 49.3256 47.192C49.3256 46.4453 49.4963 45.7733 49.8376 45.176C50.1896 44.5787 50.659 44.1093 51.2456 43.768C51.843 43.416 52.5096 43.24 53.2456 43.24C53.9496 43.24 54.5683 43.4 55.1016 43.72C55.6456 44.04 56.067 44.4827 56.3656 45.048C56.675 45.6133 56.8296 46.2533 56.8296 46.968C56.8296 47.0747 56.8243 47.192 56.8136 47.32C56.803 47.4373 56.7816 47.576 56.7496 47.736H50.3336V46.536H55.9816L55.4536 47C55.4536 46.488 55.363 46.056 55.1816 45.704C55.0003 45.3413 54.7443 45.064 54.4136 44.872C54.083 44.6693 53.683 44.568 53.2136 44.568C52.723 44.568 52.291 44.6747 51.9176 44.888C51.5443 45.1013 51.2563 45.4 51.0536 45.784C50.851 46.168 50.7496 46.6213 50.7496 47.144C50.7496 47.6773 50.8563 48.1467 51.0696 48.552C51.283 48.9467 51.587 49.256 51.9816 49.48C52.3763 49.6933 52.8296 49.8 53.3416 49.8C53.7683 49.8 54.1576 49.7253 54.5096 49.576C54.8723 49.4267 55.1816 49.2027 55.4376 48.904L56.3656 49.848C56.003 50.2747 55.555 50.6 55.0216 50.824C54.499 51.048 53.939 51.16 53.3416 51.16ZM61.6318 51.16C60.9384 51.16 60.3091 50.9893 59.7438 50.648C59.1784 50.296 58.7304 49.8213 58.3997 49.224C58.0798 48.6267 57.9198 47.9547 57.9198 47.208C57.9198 46.4613 58.0798 45.7893 58.3997 45.192C58.7304 44.5947 59.1731 44.12 59.7278 43.768C60.2931 43.416 60.9278 43.24 61.6318 43.24C62.2078 43.24 62.7198 43.3627 63.1678 43.608C63.6264 43.8427 63.9944 44.1733 64.2718 44.6C64.5491 45.016 64.7038 45.5013 64.7358 46.056V48.344C64.7038 48.888 64.5491 49.3733 64.2718 49.8C64.0051 50.2267 63.6424 50.5627 63.1838 50.808C62.7358 51.0427 62.2184 51.16 61.6318 51.16ZM61.8718 49.8C62.5864 49.8 63.1624 49.56 63.5998 49.08C64.0371 48.5893 64.2558 47.9653 64.2558 47.208C64.2558 46.6853 64.1544 46.232 63.9518 45.848C63.7598 45.4533 63.4824 45.1493 63.1198 44.936C62.7571 44.712 62.3358 44.6 61.8558 44.6C61.3758 44.6 60.9491 44.712 60.5758 44.936C60.2131 45.16 59.9251 45.4693 59.7118 45.864C59.5091 46.248 59.4078 46.6907 59.4078 47.192C59.4078 47.704 59.5091 48.1573 59.7118 48.552C59.9251 48.936 60.2184 49.24 60.5918 49.464C60.9651 49.688 61.3918 49.8 61.8718 49.8ZM64.1598 51V48.952L64.4318 47.096L64.1598 45.256V43.4H65.6158V51H64.1598ZM67.7122 51V43.4H69.1523V51H67.7122ZM69.1523 46.664L68.6083 46.424C68.6083 45.4533 68.8323 44.68 69.2803 44.104C69.7283 43.528 70.3736 43.24 71.2163 43.24C71.6003 43.24 71.9469 43.3093 72.2563 43.448C72.5656 43.576 72.8536 43.7947 73.1203 44.104L72.1763 45.08C72.0163 44.9093 71.8403 44.7867 71.6483 44.712C71.4563 44.6373 71.2323 44.6 70.9763 44.6C70.4429 44.6 70.0056 44.7707 69.6643 45.112C69.3229 45.4533 69.1523 45.9707 69.1523 46.664ZM77.3561 51.16C76.6095 51.16 75.9321 50.984 75.3241 50.632C74.7268 50.28 74.2521 49.8053 73.9001 49.208C73.5588 48.6 73.3881 47.928 73.3881 47.192C73.3881 46.4453 73.5588 45.7733 73.9001 45.176C74.2521 44.5787 74.7268 44.1093 75.3241 43.768C75.9321 43.416 76.6095 43.24 77.3561 43.24C77.9428 43.24 78.4868 43.352 78.9881 43.576C79.4895 43.7893 79.9215 44.104 80.2841 44.52L79.3241 45.48C79.0895 45.2027 78.8015 44.9947 78.4601 44.856C78.1295 44.7067 77.7615 44.632 77.3561 44.632C76.8761 44.632 76.4495 44.744 76.0761 44.968C75.7028 45.1813 75.4095 45.48 75.1961 45.864C74.9828 46.248 74.8761 46.6907 74.8761 47.192C74.8761 47.6933 74.9828 48.136 75.1961 48.52C75.4095 48.904 75.7028 49.208 76.0761 49.432C76.4495 49.656 76.8761 49.768 77.3561 49.768C77.7615 49.768 78.1295 49.6987 78.4601 49.56C78.8015 49.4107 79.0948 49.1973 79.3401 48.92L80.2841 49.88C79.9321 50.2853 79.5001 50.6 78.9881 50.824C78.4868 51.048 77.9428 51.16 77.3561 51.16ZM87.0883 51V46.568C87.0883 45.992 86.9069 45.5173 86.5443 45.144C86.1816 44.7707 85.7123 44.584 85.1363 44.584C84.7523 44.584 84.4109 44.6693 84.1123 44.84C83.8136 45.0107 83.5789 45.2453 83.4083 45.544C83.2376 45.8427 83.1523 46.184 83.1523 46.568L82.5603 46.232C82.5603 45.656 82.6883 45.144 82.9443 44.696C83.2003 44.248 83.5576 43.896 84.0163 43.64C84.4749 43.3733 84.9923 43.24 85.5683 43.24C86.1443 43.24 86.6509 43.368 87.0883 43.624C87.5363 43.88 87.8883 44.2373 88.1443 44.696C88.4003 45.1547 88.5283 45.6827 88.5283 46.28V51H87.0883ZM81.7122 51V39.576H83.1523V51H81.7122ZM92.846 54.344C92.3553 54.344 91.9447 54.264 91.614 54.104C91.2727 53.944 90.9687 53.7147 90.702 53.416L91.63 52.472C91.7793 52.6533 91.9447 52.7867 92.126 52.872C92.2967 52.9573 92.5047 53 92.75 53C93.07 53 93.3473 52.8987 93.582 52.696C93.8167 52.504 93.934 52.2107 93.934 51.816V43.4H95.374V51.8C95.374 52.3547 95.2567 52.8187 95.022 53.192C94.7873 53.5653 94.478 53.848 94.094 54.04C93.71 54.2427 93.294 54.344 92.846 54.344ZM94.67 41.88C94.414 41.88 94.2007 41.7947 94.03 41.624C93.8593 41.4427 93.774 41.2187 93.774 40.952C93.774 40.696 93.8593 40.4827 94.03 40.312C94.2007 40.1307 94.414 40.04 94.67 40.04C94.9367 40.04 95.1553 40.1307 95.326 40.312C95.4967 40.4827 95.582 40.696 95.582 40.952C95.582 41.2187 95.4967 41.4427 95.326 41.624C95.1553 41.7947 94.9367 41.88 94.67 41.88ZM100.966 51.16C100.219 51.16 99.5468 50.984 98.9495 50.632C98.3522 50.28 97.8775 49.8053 97.5255 49.208C97.1735 48.6 96.9975 47.9227 96.9975 47.176C96.9975 46.44 97.1735 45.7787 97.5255 45.192C97.8775 44.5947 98.3522 44.12 98.9495 43.768C99.5468 43.416 100.219 43.24 100.966 43.24C101.702 43.24 102.368 43.416 102.966 43.768C103.574 44.1093 104.054 44.5787 104.406 45.176C104.758 45.7733 104.934 46.44 104.934 47.176C104.934 47.9227 104.758 48.6 104.406 49.208C104.054 49.8053 103.574 50.28 102.966 50.632C102.368 50.984 101.702 51.16 100.966 51.16ZM100.966 49.768C101.446 49.768 101.872 49.656 102.246 49.432C102.619 49.208 102.912 48.904 103.126 48.52C103.339 48.1253 103.446 47.6773 103.446 47.176C103.446 46.6853 103.334 46.248 103.11 45.864C102.896 45.48 102.603 45.1813 102.23 44.968C101.867 44.744 101.446 44.632 100.966 44.632C100.486 44.632 100.059 44.744 99.6855 44.968C99.3122 45.1813 99.0188 45.48 98.8055 45.864C98.5922 46.248 98.4855 46.6853 98.4855 47.176C98.4855 47.6773 98.5922 48.1253 98.8055 48.52C99.0188 48.904 99.3122 49.208 99.6855 49.432C100.059 49.656 100.486 49.768 100.966 49.768ZM110.556 51.16C109.98 51.16 109.457 51.0427 108.988 50.808C108.529 50.5627 108.161 50.2267 107.884 49.8C107.607 49.3733 107.452 48.888 107.42 48.344V46.056C107.452 45.5013 107.607 45.016 107.884 44.6C108.172 44.1733 108.545 43.8427 109.004 43.608C109.473 43.3627 109.991 43.24 110.556 43.24C111.249 43.24 111.873 43.416 112.428 43.768C112.993 44.12 113.436 44.5947 113.756 45.192C114.076 45.7893 114.236 46.4613 114.236 47.208C114.236 47.9547 114.076 48.6267 113.756 49.224C113.436 49.8213 112.993 50.296 112.428 50.648C111.873 50.9893 111.249 51.16 110.556 51.16ZM106.556 51V39.576H107.996V45.256L107.724 47.096L107.996 48.952V51H106.556ZM110.316 49.8C110.796 49.8 111.217 49.688 111.58 49.464C111.943 49.24 112.231 48.936 112.444 48.552C112.657 48.1573 112.764 47.704 112.764 47.192C112.764 46.6907 112.657 46.2427 112.444 45.848C112.231 45.4533 111.943 45.1493 111.58 44.936C111.217 44.712 110.801 44.6 110.332 44.6C109.852 44.6 109.431 44.712 109.068 44.936C108.705 45.1493 108.423 45.4533 108.22 45.848C108.017 46.2427 107.916 46.696 107.916 47.208C107.916 47.7093 108.012 48.1573 108.204 48.552C108.407 48.936 108.689 49.24 109.052 49.464C109.425 49.688 109.847 49.8 110.316 49.8ZM118.285 51.16C117.858 51.16 117.453 51.1067 117.069 51C116.695 50.8827 116.349 50.7227 116.029 50.52C115.709 50.3067 115.431 50.056 115.197 49.768L116.125 48.84C116.402 49.1813 116.722 49.4373 117.085 49.608C117.447 49.768 117.853 49.848 118.301 49.848C118.749 49.848 119.095 49.7733 119.341 49.624C119.586 49.464 119.709 49.2453 119.709 48.968C119.709 48.6907 119.607 48.4773 119.405 48.328C119.213 48.168 118.962 48.04 118.653 47.944C118.343 47.8373 118.013 47.736 117.661 47.64C117.319 47.5333 116.994 47.4 116.685 47.24C116.375 47.08 116.119 46.8613 115.917 46.584C115.725 46.3067 115.629 45.9387 115.629 45.48C115.629 45.0213 115.741 44.6267 115.965 44.296C116.189 43.9547 116.498 43.6933 116.893 43.512C117.298 43.3307 117.783 43.24 118.349 43.24C118.946 43.24 119.474 43.3467 119.933 43.56C120.402 43.7627 120.786 44.072 121.085 44.488L120.157 45.416C119.943 45.1387 119.677 44.9253 119.357 44.776C119.047 44.6267 118.695 44.552 118.301 44.552C117.885 44.552 117.565 44.6267 117.341 44.776C117.127 44.9147 117.021 45.112 117.021 45.368C117.021 45.624 117.117 45.8213 117.309 45.96C117.501 46.0987 117.751 46.216 118.061 46.312C118.381 46.408 118.711 46.5093 119.053 46.616C119.394 46.712 119.719 46.8453 120.029 47.016C120.338 47.1867 120.589 47.416 120.781 47.704C120.983 47.992 121.085 48.3707 121.085 48.84C121.085 49.5547 120.829 50.12 120.317 50.536C119.815 50.952 119.138 51.16 118.285 51.16Z" fill="#0D0D0D"/>
</g>
<g filter="url(#filter1_d_1312_19329)">
<rect x="359" y="8" width="70" height="70" rx="12" fill="#00694B" shape-rendering="crispEdges"/>
<g clip-path="url(#clip0_1312_19329)">
<path d="M407.658 55.0087L400.695 48.0449C402.592 45.7239 403.525 42.7623 403.301 39.7727C403.076 36.7831 401.711 33.9942 399.488 31.9828C397.265 29.9715 394.353 28.8916 391.356 28.9665C388.359 29.0415 385.505 30.2655 383.385 32.3854C381.266 34.5054 380.041 37.359 379.967 40.3561C379.892 43.3533 380.971 46.2645 382.983 48.4877C384.994 50.711 387.783 52.0761 390.773 52.3007C393.762 52.5253 396.724 51.5923 399.045 49.6946L406.009 56.6584C406.229 56.8709 406.523 56.9885 406.829 56.9859C407.135 56.9832 407.428 56.8605 407.644 56.6442C407.86 56.4279 407.983 56.1353 407.986 55.8294C407.989 55.5235 407.871 55.2288 407.658 55.0087ZM391.667 50.0002C389.821 50.0002 388.016 49.4528 386.482 48.4273C384.947 47.4017 383.75 45.9441 383.044 44.2386C382.338 42.5332 382.153 40.6565 382.513 38.8461C382.873 37.0356 383.762 35.3725 385.067 34.0672C386.373 32.7619 388.036 31.873 389.846 31.5129C391.657 31.1528 393.533 31.3376 395.239 32.044C396.944 32.7504 398.402 33.9467 399.427 35.4816C400.453 37.0164 401 38.8209 401 40.6669C400.997 43.1414 400.013 45.5138 398.263 47.2635C396.514 49.0132 394.141 49.9975 391.667 50.0002Z" fill="white"/>
</g>
</g>
<defs>
<filter id="filter0_d_1312_19329" x="0" y="0" width="352" height="110" filterUnits="userSpaceOnUse" color-interpolation-filters="sRGB">
<feFlood flood-opacity="0" result="BackgroundImageFix"/>
<feColorMatrix in="SourceAlpha" type="matrix" values="0 0 0 0 0 0 0 0 0 0 0 0 0 0 0 0 0 0 127 0" result="hardAlpha"/>
<feOffset dx="-4" dy="12"/>
<feGaussianBlur stdDeviation="10"/>
<feComposite in2="hardAlpha" operator="out"/>
<feColorMatrix type="matrix" values="0 0 0 0 0.0528846 0 0 0 0 0.0528846 0 0 0 0 0.0528846 0 0 0 0.1 0"/>
<feBlend mode="normal" in2="BackgroundImageFix" result="effect1_dropShadow_1312_19329"/>
<feBlend mode="normal" in="SourceGraphic" in2="effect1_dropShadow_1312_19329" result="shape"/>
</filter>
<filter id="filter1_d_1312_19329" x="343" y="0" width="110" height="110" filterUnits="userSpaceOnUse" color-interpolation-filters="sRGB">
<feFlood flood-opacity="0" result="BackgroundImageFix"/>
<feColorMatrix in="SourceAlpha" type="matrix" values="0 0 0 0 0 0 0 0 0 0 0 0 0 0 0 0 0 0 127 0" result="hardAlpha"/>
<feOffset dx="4" dy="12"/>
<feGaussianBlur stdDeviation="10"/>
<feComposite in2="hardAlpha" operator="out"/>
<feColorMatrix type="matrix" values="0 0 0 0 0.0528846 0 0 0 0 0.0528846 0 0 0 0 0.0528846 0 0 0 0.1 0"/>
<feBlend mode="normal" in2="BackgroundImageFix" result="effect1_dropShadow_1312_19329"/>
<feBlend mode="normal" in="SourceGraphic" in2="effect1_dropShadow_1312_19329" result="shape"/>
</filter>
<clipPath id="clip0_1312_19329">
<rect width="28" height="28" fill="white" transform="translate(380 29)"/>
</clipPath>
</defs>
</svg>
