<svg width="145" height="145" viewBox="0 0 145 145" fill="none" xmlns="http://www.w3.org/2000/svg">
<rect x="2" y="2" width="141" height="141" rx="70.5" fill="#00694B"/>
<rect x="2" y="2" width="141" height="141" rx="70.5" stroke="white" stroke-width="4"/>
<path d="M42.142 75L50.578 63.258L52.782 63.106C52.4527 63.6887 52.0853 64.208 51.68 64.664C51.3 65.0947 50.806 65.4367 50.198 65.69C49.6153 65.918 48.83 66.032 47.842 66.032C46.2207 66.032 44.726 65.652 43.358 64.892C42.0153 64.1067 40.9387 63.0553 40.128 61.738C39.3427 60.3953 38.95 58.8753 38.95 57.178C38.95 55.4047 39.3933 53.8087 40.28 52.39C41.1667 50.9713 42.3573 49.844 43.852 49.008C45.3467 48.172 47.0313 47.754 48.906 47.754C50.7807 47.754 52.4653 48.172 53.96 49.008C55.4547 49.8187 56.6327 50.9333 57.494 52.352C58.3807 53.7453 58.824 55.3287 58.824 57.102C58.824 59.382 58.0387 61.6747 56.468 63.98L48.906 75H42.142ZM48.906 61.586C49.6913 61.586 50.4007 61.396 51.034 61.016C51.6673 60.636 52.1613 60.1293 52.516 59.496C52.8707 58.8373 53.048 58.1027 53.048 57.292C53.048 56.456 52.8707 55.7087 52.516 55.05C52.1613 54.3913 51.6673 53.8847 51.034 53.53C50.4007 53.15 49.6913 52.96 48.906 52.96C48.0953 52.96 47.3733 53.15 46.74 53.53C46.132 53.8847 45.638 54.3913 45.258 55.05C44.9033 55.7087 44.726 56.456 44.726 57.292C44.726 58.1027 44.9033 58.8373 45.258 59.496C45.638 60.1293 46.1447 60.636 46.778 61.016C47.4113 61.396 48.1207 61.586 48.906 61.586ZM70.1643 75.418C68.239 75.418 66.5543 75.076 65.1103 74.392C63.6917 73.708 62.577 72.7707 61.7663 71.58C60.981 70.3893 60.5883 69.034 60.5883 67.514C60.5883 66.2473 60.829 65.1073 61.3103 64.094C61.817 63.0807 62.5137 62.232 63.4003 61.548C64.3123 60.864 65.3637 60.3953 66.5543 60.142L66.4403 61.358C65.427 61.13 64.5657 60.712 63.8563 60.104C63.147 59.4707 62.6023 58.7107 62.2223 57.824C61.8423 56.9373 61.6523 56.0127 61.6523 55.05C61.6523 53.6313 62.007 52.3773 62.7163 51.288C63.451 50.1733 64.4643 49.2993 65.7563 48.666C67.0483 48.0327 68.5177 47.716 70.1643 47.716C71.8363 47.716 73.3057 48.0327 74.5723 48.666C75.8643 49.2993 76.865 50.1733 77.5743 51.288C78.309 52.3773 78.6763 53.6313 78.6763 55.05C78.6763 56.0127 78.4863 56.9373 78.1063 57.824C77.7517 58.7107 77.2197 59.4707 76.5103 60.104C75.801 60.712 74.9397 61.13 73.9263 61.358L73.7743 60.142C74.9903 60.3953 76.0417 60.864 76.9283 61.548C77.8403 62.232 78.537 63.0807 79.0183 64.094C79.4997 65.1073 79.7403 66.2473 79.7403 67.514C79.7403 69.034 79.3477 70.3893 78.5623 71.58C77.777 72.7707 76.6623 73.708 75.2183 74.392C73.7997 75.076 72.115 75.418 70.1643 75.418ZM70.1643 70.326C70.9243 70.326 71.5957 70.174 72.1783 69.87C72.761 69.5407 73.217 69.0973 73.5463 68.54C73.901 67.9827 74.0783 67.362 74.0783 66.678C74.0783 65.9687 73.901 65.348 73.5463 64.816C73.217 64.2587 72.761 63.828 72.1783 63.524C71.5957 63.1947 70.9243 63.03 70.1643 63.03C69.4043 63.03 68.733 63.1947 68.1503 63.524C67.5677 63.828 67.1117 64.2587 66.7823 64.816C66.453 65.348 66.2883 65.9687 66.2883 66.678C66.2883 67.362 66.453 67.9827 66.7823 68.54C67.1117 69.0973 67.5677 69.5407 68.1503 69.87C68.733 70.174 69.4043 70.326 70.1643 70.326ZM70.1643 58.698C71.051 58.698 71.773 58.4193 72.3303 57.862C72.913 57.2793 73.2043 56.5573 73.2043 55.696C73.2043 54.8093 72.913 54.0873 72.3303 53.53C71.773 52.9473 71.051 52.656 70.1643 52.656C69.303 52.656 68.581 52.9347 67.9983 53.492C67.4157 54.0493 67.1243 54.7713 67.1243 55.658C67.1243 56.5193 67.4157 57.2413 67.9983 57.824C68.581 58.4067 69.303 58.698 70.1643 58.698ZM83.1422 75L99.2162 48.172H104.536L88.4622 75H83.1422ZM99.9382 75.38C98.8996 75.38 97.9496 75.1267 97.0882 74.62C96.2522 74.1133 95.5809 73.442 95.0742 72.606C94.5676 71.7447 94.3142 70.7947 94.3142 69.756C94.3142 68.692 94.5676 67.7547 95.0742 66.944C95.5809 66.108 96.2522 65.4367 97.0882 64.93C97.9242 64.4233 98.8616 64.17 99.9002 64.17C100.99 64.17 101.952 64.4233 102.788 64.93C103.65 65.4367 104.334 66.108 104.84 66.944C105.347 67.7547 105.6 68.692 105.6 69.756C105.6 70.7947 105.347 71.7447 104.84 72.606C104.334 73.4673 103.65 74.1513 102.788 74.658C101.952 75.1393 101.002 75.38 99.9382 75.38ZM99.9382 71.428C100.42 71.428 100.812 71.276 101.116 70.972C101.42 70.668 101.572 70.2627 101.572 69.756C101.572 69.3 101.42 68.92 101.116 68.616C100.812 68.2867 100.42 68.122 99.9382 68.122C99.4822 68.122 99.1022 68.2867 98.7982 68.616C98.4942 68.92 98.3422 69.3 98.3422 69.756C98.3422 70.2627 98.4942 70.668 98.7982 70.972C99.1022 71.276 99.4822 71.428 99.9382 71.428ZM87.7022 58.964C86.6636 58.964 85.7136 58.7233 84.8522 58.242C84.0162 57.7353 83.3449 57.064 82.8382 56.228C82.3316 55.3667 82.0782 54.404 82.0782 53.34C82.0782 52.3013 82.3316 51.364 82.8382 50.528C83.3449 49.692 84.0162 49.0333 84.8522 48.552C85.6882 48.0453 86.6256 47.792 87.6642 47.792C88.7536 47.792 89.7162 48.0453 90.5522 48.552C91.4136 49.0333 92.0976 49.692 92.6042 50.528C93.1109 51.364 93.3642 52.3013 93.3642 53.34C93.3642 54.404 93.1109 55.3667 92.6042 56.228C92.0976 57.064 91.4136 57.7353 90.5522 58.242C89.7162 58.7233 88.7662 58.964 87.7022 58.964ZM87.7022 55.012C88.1836 55.012 88.5762 54.86 88.8802 54.556C89.1842 54.252 89.3362 53.8593 89.3362 53.378C89.3362 52.8967 89.1842 52.504 88.8802 52.2C88.5762 51.896 88.1836 51.744 87.7022 51.744C87.2462 51.744 86.8662 51.896 86.5622 52.2C86.2582 52.504 86.1062 52.8967 86.1062 53.378C86.1062 53.8593 86.2582 54.252 86.5622 54.556C86.8662 54.86 87.2462 55.012 87.7022 55.012Z" fill="white"/>
<path d="M47.062 103L42.058 90.508H43.894L48.016 101.074H47.35L51.508 90.508H53.326L48.286 103H47.062ZM57.2652 103.18C56.4132 103.18 55.6452 102.988 54.9612 102.604C54.2772 102.208 53.7372 101.674 53.3412 101.002C52.9452 100.33 52.7472 99.568 52.7472 98.716C52.7472 97.876 52.9392 97.12 53.3232 96.448C53.7192 95.776 54.2472 95.248 54.9072 94.864C55.5792 94.468 56.3292 94.27 57.1572 94.27C57.9492 94.27 58.6452 94.45 59.2452 94.81C59.8572 95.17 60.3312 95.668 60.6672 96.304C61.0152 96.94 61.1892 97.66 61.1892 98.464C61.1892 98.584 61.1832 98.716 61.1712 98.86C61.1592 98.992 61.1352 99.148 61.0992 99.328H53.8812V97.978H60.2352L59.6412 98.5C59.6412 97.924 59.5392 97.438 59.3352 97.042C59.1312 96.634 58.8432 96.322 58.4712 96.106C58.0992 95.878 57.6492 95.764 57.1212 95.764C56.5692 95.764 56.0832 95.884 55.6632 96.124C55.2432 96.364 54.9192 96.7 54.6912 97.132C54.4632 97.564 54.3492 98.074 54.3492 98.662C54.3492 99.262 54.4692 99.79 54.7092 100.246C54.9492 100.69 55.2912 101.038 55.7352 101.29C56.1792 101.53 56.6892 101.65 57.2652 101.65C57.7452 101.65 58.1832 101.566 58.5792 101.398C58.9872 101.23 59.3352 100.978 59.6232 100.642L60.6672 101.704C60.2592 102.184 59.7552 102.55 59.1552 102.802C58.5672 103.054 57.9372 103.18 57.2652 103.18ZM62.9556 103V94.45H64.5756V103H62.9556ZM64.5756 98.122L63.9636 97.852C63.9636 96.76 64.2156 95.89 64.7196 95.242C65.2236 94.594 65.9496 94.27 66.8976 94.27C67.3296 94.27 67.7196 94.348 68.0676 94.504C68.4156 94.648 68.7396 94.894 69.0396 95.242L67.9776 96.34C67.7976 96.148 67.5996 96.01 67.3836 95.926C67.1676 95.842 66.9156 95.8 66.6276 95.8C66.0276 95.8 65.5356 95.992 65.1516 96.376C64.7676 96.76 64.5756 97.342 64.5756 98.122ZM70.1982 103V94.45H71.8182V103H70.1982ZM71.0082 92.74C70.7082 92.74 70.4622 92.644 70.2702 92.452C70.0782 92.248 69.9822 91.996 69.9822 91.696C69.9822 91.408 70.0782 91.168 70.2702 90.976C70.4622 90.772 70.7082 90.67 71.0082 90.67C71.3082 90.67 71.5542 90.772 71.7462 90.976C71.9382 91.168 72.0342 91.408 72.0342 91.696C72.0342 91.996 71.9382 92.248 71.7462 92.452C71.5542 92.644 71.3082 92.74 71.0082 92.74ZM75.4296 103V92.902C75.4296 92.338 75.5496 91.84 75.7896 91.408C76.0416 90.964 76.3896 90.616 76.8336 90.364C77.2776 90.1 77.7876 89.968 78.3636 89.968C78.8076 89.968 79.1976 90.046 79.5336 90.202C79.8696 90.346 80.1816 90.55 80.4696 90.814L79.4076 91.876C79.2516 91.744 79.0896 91.648 78.9216 91.588C78.7536 91.516 78.5676 91.48 78.3636 91.48C77.9436 91.48 77.6196 91.612 77.3916 91.876C77.1636 92.128 77.0496 92.47 77.0496 92.902V103H75.4296ZM73.3236 95.926V94.45H81.4416V95.926H73.3236ZM80.5056 103V94.45H82.1436V103H80.5056ZM81.3156 93.55C81.0276 93.55 80.7876 93.454 80.5956 93.262C80.4036 93.058 80.3076 92.806 80.3076 92.506C80.3076 92.218 80.4036 91.978 80.5956 91.786C80.7876 91.582 81.0276 91.48 81.3156 91.48C81.6276 91.48 81.8736 91.582 82.0536 91.786C82.2456 91.978 82.3416 92.218 82.3416 92.506C82.3416 92.806 82.2456 93.058 82.0536 93.262C81.8736 93.454 81.6276 93.55 81.3156 93.55ZM88.4839 103.18C87.6319 103.18 86.8639 102.988 86.1799 102.604C85.4959 102.208 84.9559 101.674 84.5599 101.002C84.1639 100.33 83.9659 99.568 83.9659 98.716C83.9659 97.876 84.1579 97.12 84.5419 96.448C84.9379 95.776 85.4659 95.248 86.1259 94.864C86.7979 94.468 87.5479 94.27 88.3759 94.27C89.1679 94.27 89.8639 94.45 90.4639 94.81C91.0759 95.17 91.5499 95.668 91.8859 96.304C92.2339 96.94 92.4079 97.66 92.4079 98.464C92.4079 98.584 92.4019 98.716 92.3899 98.86C92.3779 98.992 92.3539 99.148 92.3179 99.328H85.0999V97.978H91.4539L90.8599 98.5C90.8599 97.924 90.7579 97.438 90.5539 97.042C90.3499 96.634 90.0619 96.322 89.6899 96.106C89.3179 95.878 88.8679 95.764 88.3399 95.764C87.7879 95.764 87.3019 95.884 86.8819 96.124C86.4619 96.364 86.1379 96.7 85.9099 97.132C85.6819 97.564 85.5679 98.074 85.5679 98.662C85.5679 99.262 85.6879 99.79 85.9279 100.246C86.1679 100.69 86.5099 101.038 86.9539 101.29C87.3979 101.53 87.9079 101.65 88.4839 101.65C88.9639 101.65 89.4019 101.566 89.7979 101.398C90.2059 101.23 90.5539 100.978 90.8419 100.642L91.8859 101.704C91.4779 102.184 90.9739 102.55 90.3739 102.802C89.7859 103.054 89.1559 103.18 88.4839 103.18ZM97.7923 103.18C97.0003 103.18 96.2923 102.988 95.6683 102.604C95.0443 102.208 94.5463 101.674 94.1743 101.002C93.8143 100.33 93.6343 99.574 93.6343 98.734C93.6343 97.894 93.8143 97.138 94.1743 96.466C94.5463 95.794 95.0443 95.26 95.6683 94.864C96.2923 94.468 97.0003 94.27 97.7923 94.27C98.4283 94.27 99.0043 94.408 99.5203 94.684C100.036 94.948 100.45 95.32 100.762 95.8C101.086 96.268 101.266 96.814 101.302 97.438V100.012C101.266 100.624 101.092 101.17 100.78 101.65C100.468 102.13 100.054 102.508 99.5383 102.784C99.0223 103.048 98.4403 103.18 97.7923 103.18ZM98.0623 101.65C98.6023 101.65 99.0703 101.524 99.4663 101.272C99.8743 101.02 100.192 100.678 100.42 100.246C100.648 99.802 100.762 99.298 100.762 98.734C100.762 98.146 100.642 97.636 100.402 97.204C100.174 96.772 99.8563 96.43 99.4483 96.178C99.0523 95.926 98.5843 95.8 98.0443 95.8C97.5043 95.8 97.0303 95.926 96.6223 96.178C96.2143 96.43 95.8903 96.778 95.6503 97.222C95.4223 97.654 95.3083 98.152 95.3083 98.716C95.3083 99.292 95.4223 99.802 95.6503 100.246C95.8903 100.678 96.2143 101.02 96.6223 101.272C97.0423 101.524 97.5223 101.65 98.0623 101.65ZM102.292 103H100.654V100.696L100.96 98.608L100.654 96.538V90.148H102.292V103Z" fill="#F7FAF7"/>
</svg>
