<svg width="30" height="30" viewBox="0 0 30 30" fill="none" xmlns="http://www.w3.org/2000/svg">
<path d="M21.7098 11.2099C21.6169 11.1161 21.5063 11.0417 21.3844 10.991C21.2625 10.9402 21.1318 10.9141 20.9998 10.9141C20.8678 10.9141 20.7371 10.9402 20.6152 10.991C20.4934 11.0417 20.3828 11.1161 20.2898 11.2099L15.7098 15.7899C15.6169 15.8836 15.5063 15.958 15.3844 16.0088C15.2625 16.0595 15.1318 16.0857 14.9998 16.0857C14.8678 16.0857 14.7371 16.0595 14.6152 16.0088C14.4934 15.958 14.3828 15.8836 14.2898 15.7899L9.70982 11.2099C9.61685 11.1161 9.50625 11.0417 9.38439 10.991C9.26253 10.9402 9.13183 10.9141 8.99982 10.9141C8.8678 10.9141 8.7371 10.9402 8.61524 10.991C8.49338 11.0417 8.38278 11.1161 8.28982 11.2099C8.10356 11.3972 7.99902 11.6507 7.99902 11.9149C7.99902 12.179 8.10356 12.4325 8.28982 12.6199L12.8798 17.2099C13.4423 17.7717 14.2048 18.0872 14.9998 18.0872C15.7948 18.0872 16.5573 17.7717 17.1198 17.2099L21.7098 12.6199C21.8961 12.4325 22.0006 12.179 22.0006 11.9149C22.0006 11.6507 21.8961 11.3972 21.7098 11.2099Z" fill="#0D0D0D" fill-opacity="0.65"/>
</svg>
