<svg width="24" height="24" viewBox="0 0 24 24" fill="none" xmlns="http://www.w3.org/2000/svg">
<rect x="0.5" y="0.5" width="23" height="23" rx="1.5" fill="#00694B"/>
<rect x="0.5" y="0.5" width="23" height="23" rx="1.5" stroke="#00694B"/>
<g clip-path="url(#clip0_7478_964)">
<path d="M18.0199 7.58475L9.95877 15.6453C9.90457 15.6997 9.84017 15.7428 9.76924 15.7723C9.69832 15.8018 9.62228 15.8169 9.54548 15.8169C9.46868 15.8169 9.39264 15.8018 9.32172 15.7723C9.25079 15.7428 9.18638 15.6997 9.13219 15.6453L6.01485 12.525C5.96066 12.4706 5.89625 12.4274 5.82533 12.398C5.7544 12.3685 5.67836 12.3533 5.60156 12.3533C5.52476 12.3533 5.44872 12.3685 5.3778 12.398C5.30688 12.4274 5.24247 12.4706 5.18827 12.525C5.13386 12.5792 5.09068 12.6436 5.06123 12.7145C5.03177 12.7855 5.0166 12.8615 5.0166 12.9383C5.0166 13.0151 5.03177 13.0911 5.06123 13.1621C5.09068 13.233 5.13386 13.2974 5.18827 13.3516L8.30677 16.4695C8.63574 16.7979 9.08155 16.9823 9.54635 16.9823C10.0112 16.9823 10.457 16.7979 10.7859 16.4695L18.8464 8.41075C18.9008 8.35657 18.9439 8.2922 18.9733 8.22133C19.0027 8.15046 19.0178 8.07448 19.0178 7.99775C19.0178 7.92103 19.0027 7.84505 18.9733 7.77418C18.9439 7.70331 18.9008 7.63894 18.8464 7.58475C18.7922 7.53034 18.7278 7.48717 18.6569 7.45771C18.586 7.42825 18.5099 7.41309 18.4331 7.41309C18.3563 7.41309 18.2803 7.42825 18.2094 7.45771C18.1385 7.48717 18.0741 7.53034 18.0199 7.58475Z" fill="white"/>
</g>
<defs>
<clipPath id="clip0_7478_964">
<rect width="14" height="14" fill="white" transform="translate(5 5)"/>
</clipPath>
</defs>
</svg>
