<svg width="20" height="20" viewBox="0 0 20 20" fill="none" xmlns="http://www.w3.org/2000/svg">
<path d="M2.49931 2.5L5.49027 5.49097M17.4993 17.5L14.5086 14.5093M11.5617 15.6872C11.0557 15.7831 10.5336 15.8333 9.99969 15.8333C6.26831 15.8333 3.10973 13.3809 2.04785 9.99997C2.33693 9.07958 2.7814 8.22801 3.3505 7.47598M8.23154 8.23223C8.68395 7.77982 9.30895 7.5 9.99931 7.5C11.38 7.5 12.4993 8.61929 12.4993 10C12.4993 10.6904 12.2195 11.3154 11.7671 11.7678M8.23154 8.23223L11.7671 11.7678M8.23154 8.23223L5.49027 5.49097M11.7671 11.7678L5.49027 5.49097M11.7671 11.7678L14.5086 14.5093M5.49027 5.49097C6.79013 4.65295 8.33811 4.16667 9.99967 4.16667C13.7311 4.16667 16.8896 6.61909 17.9515 10C17.3624 11.8756 16.1281 13.4654 14.5086 14.5093" stroke="#0D0D0D" stroke-opacity="0.65" stroke-width="1.5" stroke-linecap="round" stroke-linejoin="round"/>
</svg>
