<svg width="430" height="40" viewBox="0 0 430 40" fill="none" xmlns="http://www.w3.org/2000/svg">
<g opacity="0.8">
<g clip-path="url(#clip0_1609_28221)">
<path d="M20 0C8.95601 0 0 8.95601 0 20C0 31.044 8.95601 40 20 40C31.044 40 40 31.044 40 20C40 8.95601 31.044 0 20 0ZM14.1883 30.2344H9.31734V15.5802H14.1882L14.1883 30.2344ZM11.7529 13.5791H11.7212C10.0866 13.5791 9.02953 12.4539 9.02953 11.0477C9.02953 9.60969 10.119 8.51562 11.7853 8.51562C13.4516 8.51562 14.477 9.60969 14.5087 11.0477C14.5087 12.4539 13.4516 13.5791 11.7529 13.5791V13.5791ZM31.7518 30.2344H26.8815V22.3947C26.8815 20.4245 26.1763 19.0808 24.4138 19.0808C23.0683 19.0808 22.267 19.9872 21.9148 20.8621C21.7859 21.1752 21.7545 21.6129 21.7545 22.0508V30.2344H16.8839C16.8839 30.2344 16.9477 16.9549 16.8839 15.5802H21.7545V17.655C22.4018 16.6566 23.56 15.2362 26.1442 15.2362C29.3489 15.2362 31.7518 17.3306 31.7518 21.8316V30.2344Z" fill="#1C2628"/>
</g>
<g clip-path="url(#clip1_1609_28221)">
<path d="M96 20C96 8.95312 87.0469 0 76 0C64.9531 0 56 8.95312 56 20C56 31.0469 64.9531 40 76 40C76.1172 40 76.2344 40 76.3516 39.9922V24.4297H72.0547V19.4219H76.3516V15.7344C76.3516 11.4609 78.9609 9.13281 82.7734 9.13281C84.6016 9.13281 86.1719 9.26562 86.625 9.32812V13.7969H84C81.9297 13.7969 81.5234 14.7812 81.5234 16.2266V19.4141H86.4844L85.8359 24.4219H81.5234V39.2266C89.8828 36.8281 96 29.1328 96 20Z" fill="#1C2628"/>
</g>
<g clip-path="url(#clip2_1609_28221)">
<path d="M135.828 20C135.828 22.1143 134.114 23.8281 132 23.8281C129.886 23.8281 128.172 22.1142 128.172 20C128.172 17.8858 129.886 16.1719 132 16.1719C134.114 16.1719 135.828 17.8858 135.828 20Z" fill="#1C2628"/>
<path d="M140.953 13.2269C140.769 12.7281 140.475 12.2768 140.094 11.9064C139.723 11.5249 139.272 11.2313 138.773 11.0473C138.369 10.8902 137.761 10.7031 136.641 10.6521C135.43 10.5969 135.067 10.585 132 10.585C128.934 10.585 128.57 10.5966 127.359 10.6518C126.24 10.7031 125.632 10.8901 125.227 11.0473C124.728 11.2312 124.277 11.5248 123.907 11.9064C123.525 12.2768 123.232 12.7281 123.047 13.2269C122.89 13.6316 122.703 14.2398 122.652 15.3595C122.597 16.5704 122.585 16.9336 122.585 20.0003C122.585 23.0667 122.597 23.4298 122.652 24.6411C122.703 25.7607 122.89 26.3687 123.047 26.7733C123.231 27.2721 123.525 27.7234 123.906 28.0939C124.277 28.4754 124.728 28.7689 125.227 28.9529C125.632 29.1104 126.24 29.2975 127.359 29.3484C128.57 29.4036 128.933 29.4153 132 29.4153C135.067 29.4153 135.43 29.4036 136.641 29.3484C137.76 29.2975 138.369 29.1104 138.773 28.9529C139.269 28.7619 139.718 28.4692 140.094 28.0938C140.469 27.7185 140.762 27.2686 140.953 26.7733C141.11 26.3686 141.297 25.7608 141.348 24.6411C141.404 23.4298 141.415 23.0667 141.415 20.0003C141.415 16.9336 141.404 16.5704 141.348 15.3595C141.297 14.2398 141.11 13.6315 140.953 13.2269ZM132 25.8972C128.743 25.8972 126.103 23.2571 126.103 20C126.103 16.7429 128.743 14.1028 132 14.1028C135.257 14.1028 137.897 16.7429 137.897 20C137.897 23.2571 135.257 25.8972 132 25.8972ZM138.131 15.2478C137.37 15.2478 136.753 14.6307 136.753 13.8696C136.753 13.1086 137.37 12.4914 138.131 12.4914C138.892 12.4914 139.509 13.1085 139.509 13.8696C139.508 14.6307 138.892 15.2478 138.131 15.2478Z" fill="#1C2628"/>
<path d="M132 0C120.956 0 112 8.95601 112 20C112 31.044 120.956 40 132 40C143.044 40 152 31.044 152 20C152 8.95601 143.044 0 132 0ZM143.415 24.7348C143.36 25.9573 143.165 26.792 142.881 27.5226C142.586 28.2855 142.135 28.9783 141.557 29.5567C140.978 30.1351 140.285 30.5863 139.523 30.8813C138.792 31.1652 137.957 31.3592 136.735 31.4151C135.51 31.4709 135.119 31.4844 132 31.4844C128.881 31.4844 128.49 31.4709 127.265 31.4151C126.043 31.3592 125.208 31.1652 124.478 30.8813C123.711 30.593 123.017 30.1409 122.443 29.5566C121.859 28.983 121.407 28.2888 121.119 27.5226C120.835 26.7923 120.641 25.9573 120.585 24.7351C120.529 23.5101 120.516 23.1189 120.516 20C120.516 16.8811 120.529 16.4898 120.585 15.2652C120.64 14.0427 120.835 13.208 121.118 12.4774C121.407 11.7111 121.859 11.0169 122.443 10.4434C123.017 9.85908 123.711 9.40696 124.477 9.11867C125.208 8.83484 126.043 8.64078 127.265 8.58492C128.49 8.52906 128.881 8.51562 132 8.51562C135.119 8.51562 135.51 8.52906 136.735 8.58516C137.957 8.64078 138.792 8.83484 139.523 9.11836C140.289 9.40681 140.983 9.85899 141.557 10.4434C142.141 11.017 142.593 11.7111 142.881 12.4774C143.165 13.208 143.36 14.0427 143.415 15.2652C143.471 16.4898 143.484 16.8811 143.484 20C143.484 23.1189 143.471 23.5102 143.415 24.7348Z" fill="#1C2628"/>
</g>
<g clip-path="url(#clip3_1609_28221)">
<path d="M188 0C199.045 0 208 8.95469 208 20C208 31.0453 199.045 40 188 40C176.955 40 168 31.0453 168 20C168 8.95469 176.955 1.09834e-06 188 0ZM185.479 21.3057L176.501 31.7422H178.53L186.381 22.6162L192.651 31.7422H199.5L190.188 18.1904L198.75 8.23828H196.722L189.287 16.8789L183.35 8.23828H176.501L185.479 21.3057ZM196.722 30.2842H193.605L179.261 9.76562H182.377L196.722 30.2842Z" fill="#1C2628"/>
</g>
<g clip-path="url(#clip4_1609_28221)">
<path fill-rule="evenodd" clip-rule="evenodd" d="M243.886 0.629395C233.204 0.629395 224.526 9.30736 224.526 19.989C224.526 30.6706 233.204 39.3481 243.886 39.3481C254.567 39.3481 263.245 30.6707 263.245 19.989C263.245 9.30729 254.567 0.629395 243.886 0.629395ZM255.475 26.2466C255.343 26.5681 254.719 27.0215 252.526 27.3622C252.337 27.3996 252.28 27.6266 252.166 28.1185C252.131 28.297 252.087 28.4736 252.034 28.6477C251.977 28.8175 251.883 28.8934 251.713 28.8934H251.694C251.527 28.8895 251.362 28.864 251.202 28.8176C250.765 28.7379 250.323 28.6938 249.879 28.6856C249.562 28.6833 249.246 28.7085 248.933 28.761C248.272 28.8747 247.724 29.2715 247.119 29.6875C246.268 30.2926 245.379 30.9163 243.999 30.9163H243.697C242.317 30.9163 241.428 30.2926 240.577 29.6874C239.991 29.2714 239.424 28.8746 238.762 28.7609C238.45 28.7085 238.134 28.6833 237.817 28.6856C237.372 28.6933 236.929 28.7439 236.494 28.8367C236.332 28.8762 236.168 28.9014 236.002 28.9121C235.925 28.9205 235.847 28.9001 235.785 28.8547C235.722 28.8093 235.678 28.7422 235.662 28.6664C235.605 28.4774 235.567 28.2883 235.529 28.1185C235.435 27.6646 235.359 27.3996 235.17 27.3622C232.977 27.0215 232.353 26.5681 232.221 26.2466C232.199 26.1988 232.187 26.1476 232.183 26.0954C232.182 26.0361 232.202 25.9785 232.241 25.9332C232.279 25.888 232.332 25.8583 232.391 25.8498C235.756 25.2826 237.269 21.8417 237.325 21.6905H237.344C237.552 21.2745 237.59 20.8964 237.458 20.6128C237.231 20.0643 236.475 19.8186 235.983 19.6675C235.868 19.6353 235.754 19.5973 235.643 19.5537C234.641 19.1569 234.565 18.7601 234.603 18.5518C234.679 18.1929 235.132 17.9467 235.529 17.9467C235.621 17.9455 235.711 17.965 235.794 18.0039C236.248 18.2117 236.645 18.3249 236.985 18.3249C237.477 18.3249 237.685 18.1171 237.703 18.0985C237.703 17.8714 237.685 17.6258 237.666 17.3796C237.571 15.7918 237.439 13.8067 237.949 12.6724C239.462 9.28807 242.657 9.02369 243.602 9.02369H244.075C245.02 9.02369 248.234 9.28807 249.746 12.6724C250.257 13.8067 250.125 15.7919 250.03 17.3796V17.4554C250.011 17.6632 249.992 17.8902 249.992 18.0984C250.011 18.1171 250.2 18.3062 250.635 18.3249C250.975 18.3061 251.353 18.1929 251.769 18.0039C251.883 17.9551 252.005 17.9294 252.129 17.9281C252.266 17.9303 252.402 17.9625 252.526 18.0226H252.544C252.866 18.1358 253.093 18.382 253.093 18.6277C253.112 18.8546 252.923 19.2135 252.053 19.5537C251.958 19.5917 251.845 19.6296 251.732 19.6675C251.221 19.8186 250.465 20.0643 250.238 20.6128C250.106 20.8964 250.143 21.2746 250.351 21.6905H250.37C250.427 21.8417 251.939 25.2826 255.305 25.8498C255.363 25.8583 255.417 25.888 255.455 25.9332C255.493 25.9785 255.514 26.0361 255.513 26.0954C255.509 26.1476 255.496 26.1988 255.475 26.2466Z" fill="#1C2628"/>
</g>
</g>
<defs>
<clipPath id="clip0_1609_28221">
<rect width="40" height="40" fill="white"/>
</clipPath>
<clipPath id="clip1_1609_28221">
<rect width="40" height="40" fill="white" transform="translate(56)"/>
</clipPath>
<clipPath id="clip2_1609_28221">
<rect width="40" height="40" fill="white" transform="translate(112)"/>
</clipPath>
<clipPath id="clip3_1609_28221">
<rect width="40" height="40" fill="white" transform="translate(168)"/>
</clipPath>
<clipPath id="clip4_1609_28221">
<rect width="40" height="40" fill="white" transform="translate(224)"/>
</clipPath>
</defs>
</svg>
