<svg width="24" height="24" viewBox="0 0 24 24" fill="none" xmlns="http://www.w3.org/2000/svg">
<g clip-path="url(#clip0_1503_29702)">
<path d="M21.5395 10.3276C21.6271 10.3276 21.6981 10.3986 21.6981 10.4862V12.1508C21.6981 12.7738 21.6402 13.383 21.5292 13.9739C20.6706 18.5641 16.6267 22.033 11.7796 21.9996C6.34072 21.9621 1.98798 17.5675 2.00002 12.1286C2.01199 6.69943 6.41705 2.30176 11.849 2.30176C14.5103 2.30176 16.9249 3.35753 18.6977 5.07249C18.7617 5.13439 18.7634 5.23642 18.7004 5.29936L16.3454 7.65432C16.2848 7.71496 16.1869 7.71653 16.1247 7.6574C15.0121 6.59828 13.5066 5.94805 11.849 5.94805C8.42606 5.94805 5.66967 8.68485 5.64644 12.1077C5.62308 15.5531 8.40913 18.3535 11.849 18.3535C14.64 18.3535 17.0006 16.5097 17.7791 13.9739H12.0076C11.92 13.9739 11.849 13.903 11.849 13.8154V10.4861C11.849 10.3986 11.92 10.3276 12.0076 10.3276H21.5395V10.3276Z" fill="#2196F3"/>
<path d="M21.5395 10.3276H20.3505C20.4381 10.3276 20.5091 10.3986 20.5091 10.4862V12.1508C20.5091 12.7738 20.4512 13.383 20.3402 13.9739C19.5211 18.353 15.8029 21.7115 11.2539 21.982C11.428 21.9923 11.6032 21.9983 11.7796 21.9995C16.6268 22.033 20.6706 18.564 21.5292 13.9739C21.6402 13.383 21.6981 12.7738 21.6981 12.1508V10.4861C21.6981 10.3986 21.6271 10.3276 21.5395 10.3276Z" fill="#1E88E5"/>
<path d="M6.21579 9.55319L3.22461 7.39194C4.90272 4.35678 8.13643 2.30176 11.8497 2.30176C14.511 2.30176 16.9257 3.35753 18.6984 5.07249C18.7625 5.13439 18.7641 5.23642 18.7011 5.29937L16.3462 7.65432C16.2857 7.71484 16.1877 7.71673 16.1257 7.65771C15.0131 6.5984 13.5075 5.94809 11.8497 5.94809C9.35163 5.94809 7.19831 7.42483 6.21579 9.55319Z" fill="#F44336"/>
<path d="M5.35156 8.92943L6.21508 9.55334C7.11188 7.61069 8.98428 6.21159 11.2038 5.9821C11.2205 5.98029 11.2365 5.9781 11.2535 5.97648C11.0582 5.95794 10.8603 5.94824 10.66 5.94824C8.40334 5.94824 6.43661 7.13794 5.35156 8.92943Z" fill="#E53935"/>
<path d="M17.5092 5.07249C17.5732 5.13439 17.5748 5.23642 17.5119 5.2994L15.6004 7.21085C15.7836 7.35012 15.9588 7.49908 16.1252 7.65744C16.1873 7.71657 16.2853 7.71499 16.3459 7.65436L18.7009 5.2994C18.7638 5.23642 18.7622 5.13443 18.6982 5.07249C16.9254 3.35753 14.5108 2.30176 11.8495 2.30176C11.6498 2.30176 11.4516 2.30841 11.2549 2.32015C13.6802 2.46461 15.8693 3.48618 17.5092 5.07249Z" fill="#E53935"/>
<path d="M19.074 18.8441C17.2754 20.7849 14.704 21.9997 11.8491 21.9997C7.99315 21.9997 4.65479 19.7838 3.03809 16.5556L6.09186 14.4629C7.00825 16.7431 9.24082 18.3534 11.8491 18.3534C13.486 18.3534 14.9747 17.7192 16.0828 16.6832L19.074 18.8441Z" fill="#4CAF50"/>
<path d="M6.0919 14.4629L5.19141 15.08C6.23729 17.0284 8.29401 18.3533 10.6601 18.3533C10.8602 18.3533 11.058 18.3435 11.2533 18.325C8.90453 18.1011 6.93761 16.5673 6.0919 14.4629Z" fill="#43A047"/>
<path d="M11.8489 21.9999C14.7037 21.9999 17.2752 20.7851 19.0738 18.8442L18.3411 18.3149C16.6523 20.4167 14.1189 21.811 11.2559 21.9819C11.4521 21.9936 11.6497 21.9999 11.8489 21.9999Z" fill="#43A047"/>
<path d="M5.64634 12.1509C5.64634 12.9682 5.80446 13.7486 6.09181 14.4632L3.038 16.5558C2.37376 15.2305 2 13.7343 2 12.1509C2 10.4249 2.4439 8.80266 3.2239 7.39209L6.21508 9.55334C5.85005 10.3432 5.64634 11.2235 5.64634 12.1509Z" fill="#FFC107"/>
<path d="M5.19105 15.08L6.09154 14.463C5.80419 13.7484 5.64606 12.968 5.64606 12.1507C5.64606 11.2233 5.84978 10.343 6.21481 9.55311L5.35129 8.9292C4.79054 9.85505 4.4651 10.9415 4.45718 12.1077C4.44987 13.1832 4.71637 14.1958 5.19105 15.08Z" fill="#FFB300"/>
</g>
<defs>
<clipPath id="clip0_1503_29702">
<rect width="20" height="20" fill="white" transform="translate(2 2.30176)"/>
</clipPath>
</defs>
</svg>
