<svg width="28" height="28" viewBox="0 0 28 28" fill="none" xmlns="http://www.w3.org/2000/svg">
<path d="M23.2747 6.45851L19.2088 2.39268C18.4522 1.63196 17.5522 1.02888 16.5609 0.618351C15.5696 0.207819 14.5068 -0.0020103 13.4338 0.00100868H8.16634C6.61983 0.00224413 5.13699 0.617062 4.04333 1.7105C2.94967 2.80395 2.33455 4.28666 2.33301 5.83318V22.1665C2.33301 25.383 4.94984 27.9998 8.16634 27.9998H19.833C23.0495 27.9998 25.6663 25.383 25.6663 22.1665V12.2323C25.6663 10.0507 24.817 8.00201 23.2747 6.45851ZM21.625 8.10818C21.996 8.47917 22.3098 8.89101 22.5642 9.33318H17.4997C16.8568 9.33318 16.333 8.80934 16.333 8.16651V3.10201C16.7752 3.35634 17.1882 3.67018 17.558 4.04118L21.6238 8.10701L21.625 8.10818ZM23.333 22.1665C23.333 24.0962 21.7627 25.6665 19.833 25.6665H8.16634C6.23667 25.6665 4.66634 24.0962 4.66634 22.1665V5.83318C4.66634 3.90351 6.23667 2.33318 8.16634 2.33318H13.4338C13.624 2.33318 13.813 2.34251 13.9997 2.36001V8.16651C13.9997 10.0962 15.57 11.6665 17.4997 11.6665H23.3062C23.3237 11.8532 23.333 12.0422 23.333 12.2323V22.1665ZM18.3245 16.8943C18.5433 17.1131 18.6662 17.4098 18.6662 17.7192C18.6662 18.0285 18.5433 18.3252 18.3245 18.544C18.1057 18.7628 17.809 18.8857 17.4997 18.8857C17.1903 18.8857 16.8936 18.7628 16.6748 18.544L15.1663 17.0355V22.1665C15.1663 22.4759 15.0434 22.7727 14.8246 22.9915C14.6058 23.2103 14.3091 23.3332 13.9997 23.3332C13.6903 23.3332 13.3935 23.2103 13.1747 22.9915C12.9559 22.7727 12.833 22.4759 12.833 22.1665V17.0355L11.3245 18.544C11.1057 18.7628 10.809 18.8857 10.4997 18.8857C10.1903 18.8857 9.8936 18.7628 9.67484 18.544C9.45608 18.3252 9.33318 18.0285 9.33318 17.7192C9.33318 17.4098 9.45608 17.1131 9.67484 16.8943L11.5578 15.0113C12.2063 14.3648 13.0846 14.0018 14.0003 14.0018C14.9159 14.0018 15.7942 14.3648 16.4427 15.0113L18.3257 16.8943H18.3245Z" fill="#00694B"/>
</svg>
