<svg width="20" height="20" viewBox="0 0 20 20" fill="none" xmlns="http://www.w3.org/2000/svg">
<path d="M0 2C0 0.895431 0.895431 0 2 0H18C19.1046 0 20 0.895431 20 2V18C20 19.1046 19.1046 20 18 20H2C0.895431 20 0 19.1046 0 18V2Z" fill="#E5E7EB"/>
<path fill-rule="evenodd" clip-rule="evenodd" d="M14.662 6.27936C15.1127 6.72997 15.1127 7.46056 14.662 7.91117L9.37359 13.1997C9.1572 13.4161 8.86371 13.5376 8.55769 13.5376C8.25167 13.5376 7.95819 13.4161 7.7418 13.1997L5.33795 10.7958C4.88735 10.3452 4.88735 9.61462 5.33795 9.16401C5.78856 8.7134 6.51913 8.7134 6.96974 9.16401L8.55769 10.752L13.0303 6.27936C13.4809 5.82875 14.2114 5.82875 14.662 6.27936Z" fill="white"/>
</svg>
