<svg width="55" height="26" viewBox="0 0 55 26" fill="none" xmlns="http://www.w3.org/2000/svg">
<rect width="55" height="26" rx="12" fill="#00694B" fill-opacity="0.08"/>
<path d="M10.5421 16.6025L10 18.5L9.45787 16.6025C9.17312 15.6059 8.39408 14.8269 7.39746 14.5421L5.5 14L7.39746 13.4579C8.39408 13.1731 9.17312 12.3941 9.45787 11.3975L10 9.5L10.5421 11.3975C10.8269 12.3941 11.6059 13.1731 12.6025 13.4579L14.5 14L12.6025 14.5421C11.6059 14.8269 10.8269 15.6059 10.5421 16.6025Z" stroke="#00694B" stroke-linecap="round" stroke-linejoin="round"/>
<path d="M16.1726 11.8097L16 12.5L15.8274 11.8097C15.6259 11.0036 14.9964 10.3741 14.1903 10.1726L13.5 10L14.1903 9.82742C14.9964 9.62589 15.6259 8.99645 15.8274 8.19031L16 7.5L16.1726 8.19031C16.3741 8.99645 17.0036 9.62589 17.8097 9.82742L18.5 10L17.8097 10.1726C17.0036 10.3741 16.3741 11.0036 16.1726 11.8097Z" stroke="#00694B" stroke-linecap="round" stroke-linejoin="round"/>
<path d="M15.2628 19.7115L15 20.5L14.7372 19.7115C14.5879 19.2636 14.2364 18.9121 13.7885 18.7628L13 18.5L13.7885 18.2372C14.2364 18.0879 14.5879 17.7364 14.7372 17.2885L15 16.5L15.2628 17.2885C15.4121 17.7364 15.7636 18.0879 16.2115 18.2372L17 18.5L16.2115 18.7628C15.7636 18.9121 15.4121 19.2636 15.2628 19.7115Z" stroke="#00694B" stroke-linecap="round" stroke-linejoin="round"/>
<path d="M25.9261 18L28.9221 13.828L29.6081 13.618C29.4961 13.8327 29.3654 14.024 29.2161 14.192C29.0761 14.3507 28.8941 14.472 28.6701 14.556C28.4461 14.64 28.1521 14.682 27.7881 14.682C27.2094 14.682 26.6774 14.5467 26.1921 14.276C25.7161 13.996 25.3334 13.6133 25.0441 13.128C24.7548 12.6427 24.6101 12.0873 24.6101 11.462C24.6101 10.8273 24.7688 10.2487 25.0861 9.726C25.4034 9.194 25.8328 8.774 26.3741 8.466C26.9154 8.158 27.5174 8.004 28.1801 8.004C28.8521 8.004 29.4541 8.158 29.9861 8.466C30.5274 8.774 30.9521 9.18467 31.2601 9.698C31.5774 10.2113 31.7361 10.7853 31.7361 11.42C31.7361 12.288 31.4328 13.1653 30.8261 14.052L28.0961 18H25.9261ZM28.1801 13.226C28.5068 13.226 28.7961 13.1513 29.0481 13.002C29.3001 12.8527 29.4961 12.6473 29.6361 12.386C29.7854 12.1153 29.8601 11.8167 29.8601 11.49C29.8601 11.1447 29.7854 10.8413 29.6361 10.58C29.4961 10.3187 29.3001 10.1133 29.0481 9.964C28.7961 9.80533 28.5068 9.726 28.1801 9.726C27.8534 9.726 27.5594 9.80533 27.2981 9.964C27.0461 10.1133 26.8454 10.3187 26.6961 10.58C26.5561 10.8413 26.4861 11.1447 26.4861 11.49C26.4861 11.826 26.5561 12.1247 26.6961 12.386C26.8454 12.6473 27.0508 12.8527 27.3121 13.002C27.5734 13.1513 27.8628 13.226 28.1801 13.226ZM36.8091 18.14C36.0345 18.14 35.3345 17.93 34.7091 17.51C34.0838 17.09 33.5845 16.4973 33.2111 15.732C32.8471 14.9667 32.6651 14.0753 32.6651 13.058C32.6651 12.0407 32.8471 11.154 33.2111 10.398C33.5751 9.642 34.0651 9.054 34.6811 8.634C35.3065 8.214 36.0018 8.004 36.7671 8.004C37.5511 8.004 38.2511 8.214 38.8671 8.634C39.4925 9.054 39.9871 9.64667 40.3511 10.412C40.7151 11.168 40.8971 12.0593 40.8971 13.086C40.8971 14.1033 40.7151 14.9947 40.3511 15.76C39.9871 16.516 39.4971 17.104 38.8811 17.524C38.2651 17.9347 37.5745 18.14 36.8091 18.14ZM36.7811 16.418C37.2291 16.418 37.6165 16.292 37.9431 16.04C38.2698 15.788 38.5218 15.4147 38.6991 14.92C38.8858 14.4253 38.9791 13.8093 38.9791 13.072C38.9791 12.3347 38.8858 11.7187 38.6991 11.224C38.5218 10.7293 38.2651 10.3607 37.9291 10.118C37.6025 9.866 37.2151 9.74 36.7671 9.74C36.3285 9.74 35.9458 9.866 35.6191 10.118C35.2925 10.3607 35.0358 10.7293 34.8491 11.224C34.6718 11.7093 34.5831 12.3207 34.5831 13.058C34.5831 13.8047 34.6718 14.4253 34.8491 14.92C35.0358 15.4147 35.2925 15.788 35.6191 16.04C35.9458 16.292 36.3331 16.418 36.7811 16.418ZM42.1873 18L48.2913 8.158H50.0273L43.9233 18H42.1873ZM48.2493 18.14C47.876 18.14 47.5353 18.0513 47.2273 17.874C46.9193 17.6873 46.672 17.4447 46.4853 17.146C46.308 16.838 46.2193 16.4927 46.2193 16.11C46.2193 15.7273 46.308 15.3867 46.4853 15.088C46.672 14.7893 46.9147 14.5513 47.2133 14.374C47.5213 14.1873 47.8667 14.094 48.2493 14.094C48.632 14.094 48.9773 14.1873 49.2853 14.374C49.5933 14.5513 49.836 14.7893 50.0133 15.088C50.2 15.3867 50.2933 15.7273 50.2933 16.11C50.2933 16.4927 50.2 16.838 50.0133 17.146C49.836 17.4447 49.5933 17.6873 49.2853 17.874C48.9867 18.0513 48.6413 18.14 48.2493 18.14ZM48.2493 16.81C48.4547 16.81 48.6227 16.7447 48.7533 16.614C48.884 16.4833 48.9493 16.3153 48.9493 16.11C48.9493 15.914 48.8793 15.7507 48.7393 15.62C48.6087 15.4893 48.4453 15.424 48.2493 15.424C48.0533 15.424 47.89 15.4893 47.7593 15.62C47.638 15.7507 47.5773 15.914 47.5773 16.11C47.5773 16.3153 47.638 16.4833 47.7593 16.614C47.89 16.7447 48.0533 16.81 48.2493 16.81ZM43.9373 12.064C43.5733 12.064 43.2327 11.9753 42.9153 11.798C42.6073 11.6113 42.3647 11.364 42.1873 11.056C42.01 10.748 41.9213 10.4073 41.9213 10.034C41.9213 9.65133 42.01 9.31067 42.1873 9.012C42.3647 8.71333 42.6073 8.47533 42.9153 8.298C43.2233 8.11133 43.564 8.018 43.9373 8.018C44.32 8.018 44.6653 8.11133 44.9733 8.298C45.2907 8.47533 45.538 8.71333 45.7153 9.012C45.8927 9.31067 45.9813 9.65133 45.9813 10.034C45.9813 10.4073 45.888 10.748 45.7013 11.056C45.524 11.364 45.2813 11.6113 44.9733 11.798C44.6747 11.9753 44.3293 12.064 43.9373 12.064ZM43.9373 10.734C44.152 10.734 44.32 10.6687 44.4413 10.538C44.5627 10.4073 44.6233 10.2393 44.6233 10.034C44.6233 9.82867 44.558 9.66067 44.4273 9.53C44.306 9.39933 44.1427 9.334 43.9373 9.334C43.7413 9.334 43.5827 9.39933 43.4613 9.53C43.34 9.66067 43.2793 9.82867 43.2793 10.034C43.2793 10.2393 43.34 10.4073 43.4613 10.538C43.5827 10.6687 43.7413 10.734 43.9373 10.734Z" fill="#00694B"/>
</svg>
