<svg width="15" height="15" viewBox="0 0 15 15" fill="none" xmlns="http://www.w3.org/2000/svg">
<g clip-path="url(#clip0_6768_8682)">
<path d="M11.2853 8.55836C10.8442 8.55913 10.41 8.6672 10.02 8.87325C9.63005 9.0793 9.29608 9.37714 9.04692 9.74108L5.24844 8.03013C5.51753 7.37867 5.51791 6.6472 5.2495 5.99546L9.03959 4.26883C9.40983 4.80327 9.95937 5.1873 10.5885 5.35128C11.2176 5.51525 11.8847 5.4483 12.4687 5.16257C13.0527 4.87685 13.515 4.39127 13.7716 3.79391C14.0283 3.19656 14.0624 2.527 13.8676 1.90669C13.6729 1.28637 13.2623 0.756394 12.7103 0.412883C12.1583 0.0693719 11.5015 -0.0649186 10.859 0.0343709C10.2164 0.13366 9.63076 0.459953 9.20819 0.954063C8.78563 1.44817 8.55416 2.07737 8.55576 2.72752C8.55837 2.88141 8.57413 3.03478 8.60285 3.18598L4.57369 5.02133C4.18622 4.65898 3.70135 4.4177 3.17864 4.32714C2.65593 4.23657 2.11815 4.30066 1.63136 4.51154C1.14458 4.72242 0.72999 5.07089 0.438536 5.51416C0.147083 5.95742 -0.00854419 6.47617 -0.00922481 7.00667C-0.00990543 7.53717 0.14439 8.05631 0.434705 8.50032C0.72502 8.94433 1.13871 9.29387 1.62495 9.506C2.1112 9.71812 2.64881 9.7836 3.17175 9.69437C3.69469 9.60515 4.18019 9.36511 4.56858 9.00376L8.61158 10.8247C8.58365 10.9758 8.56837 11.129 8.56591 11.2827C8.56629 11.8212 8.72636 12.3475 9.02586 12.795C9.32537 13.2425 9.75087 13.5911 10.2485 13.7968C10.7462 14.0025 11.2937 14.0559 11.8217 13.9504C12.3498 13.8449 12.8347 13.5852 13.2151 13.2041C13.5956 12.8229 13.8544 12.3376 13.959 11.8093C14.0635 11.2811 14.009 10.7337 13.8025 10.2364C13.5959 9.7391 13.2465 9.31424 12.7984 9.01555C12.3503 8.71686 11.8238 8.55776 11.2853 8.55836ZM11.2785 1.16929C11.5862 1.16889 11.8872 1.25976 12.1432 1.4304C12.3993 1.60105 12.599 1.8438 12.7171 2.12796C12.8352 2.41211 12.8664 2.72491 12.8067 3.02679C12.747 3.32867 12.5992 3.60607 12.3818 3.8239C12.1644 4.04173 11.8874 4.19022 11.5856 4.25057C11.2839 4.31092 10.971 4.28043 10.6866 4.16296C10.4022 4.04548 10.159 3.8463 9.98778 3.59061C9.81657 3.33491 9.72504 3.03418 9.72476 2.72646C9.72469 2.31404 9.88826 1.91845 10.1796 1.62651C10.4709 1.33456 10.8661 1.17013 11.2785 1.16929ZM2.7301 8.56619C2.42237 8.56658 2.12144 8.47571 1.86537 8.30507C1.6093 8.13443 1.40958 7.89167 1.29148 7.60751C1.17338 7.32336 1.1422 7.01056 1.20189 6.70868C1.26157 6.4068 1.40944 6.1294 1.6268 5.91157C1.84415 5.69374 2.12122 5.54525 2.42297 5.4849C2.72472 5.42455 3.03758 5.45504 3.322 5.57251C3.60642 5.68999 3.84961 5.88917 4.02082 6.14487C4.19203 6.40056 4.28356 6.70129 4.28384 7.00901C4.28375 7.42138 4.12014 7.81689 3.82887 8.1088C3.5376 8.4007 3.14246 8.56519 2.7301 8.56619ZM11.2892 12.8359C10.9815 12.8362 10.6806 12.7453 10.4246 12.5745C10.1686 12.4038 9.96898 12.161 9.85097 11.8769C9.73296 11.5927 9.70186 11.2799 9.76161 10.9781C9.82137 10.6762 9.96928 10.3989 10.1867 10.1811C10.404 9.96335 10.6811 9.81492 10.9828 9.75462C11.2846 9.69431 11.5974 9.72484 11.8818 9.84233C12.1662 9.95982 12.4093 10.159 12.5805 10.4147C12.7517 10.6704 12.8432 10.9711 12.8435 11.2788C12.8436 11.6913 12.6799 12.087 12.3885 12.3789C12.0971 12.6709 11.7017 12.8353 11.2892 12.8359Z" fill="#0D0D0D" fill-opacity="0.65"/>
</g>
<defs>
<clipPath id="clip0_6768_8682">
<rect width="14" height="14" fill="white" transform="translate(0 0.0127984) rotate(-0.0523783)"/>
</clipPath>
</defs>
</svg>
