<svg width="96" height="96" viewBox="0 0 96 96" fill="none" xmlns="http://www.w3.org/2000/svg">
<g filter="url(#filter0_d_1316_17346)">
<rect x="20" y="16" width="56" height="56" rx="16" fill="white" shape-rendering="crispEdges"/>
<g clip-path="url(#clip0_1316_17346)">
<path d="M39.9627 57.7134C39.6712 57.7133 39.3878 57.6177 39.1559 57.4413C38.9239 57.2648 38.7561 57.0172 38.6782 56.7364C38.6004 56.4555 38.6166 56.1569 38.7246 55.8862C38.8325 55.6155 39.0262 55.3876 39.276 55.2374C44 52.4001 44 46.3067 44 42.6667C44 41.6059 44.4214 40.5885 45.1716 39.8383C45.9217 39.0882 46.9391 38.6667 48 38.6667C49.0609 38.6667 50.0783 39.0882 50.8284 39.8383C51.5786 40.5885 52 41.6059 52 42.6667C52 43.0204 51.8595 43.3595 51.6095 43.6095C51.3594 43.8596 51.0203 44.0001 50.6667 44.0001C50.313 44.0001 49.9739 43.8596 49.7239 43.6095C49.4738 43.3595 49.3333 43.0204 49.3333 42.6667C49.3333 42.3131 49.1929 41.974 48.9428 41.7239C48.6928 41.4739 48.3536 41.3334 48 41.3334C47.6464 41.3334 47.3072 41.4739 47.0572 41.7239C46.8071 41.974 46.6667 42.3131 46.6667 42.6667C46.6667 46.5961 46.6667 53.9121 40.648 57.5241C40.4409 57.648 40.204 57.7135 39.9627 57.7134ZM46.58 59.6081C49.6227 56.5414 51.4 52.2294 51.8613 46.7801C51.8769 46.6053 51.8578 46.4291 51.8051 46.2617C51.7524 46.0943 51.6672 45.9389 51.5544 45.8045C51.4415 45.6701 51.3032 45.5593 51.1475 45.4785C50.9917 45.3976 50.8215 45.3483 50.6467 45.3334C50.4717 45.3155 50.2949 45.3329 50.1268 45.3847C49.9588 45.4365 49.8028 45.5217 49.6683 45.635C49.5339 45.7483 49.4235 45.8876 49.344 46.0445C49.2645 46.2013 49.2173 46.3726 49.2053 46.5481C48.7907 51.4241 47.3133 55.0814 44.688 57.7227C44.4387 57.9736 44.2993 58.3133 44.3004 58.667C44.3015 59.0207 44.4431 59.3594 44.694 59.6087C44.9449 59.858 45.2845 59.9975 45.6382 59.9963C45.9919 59.9952 46.3307 59.8536 46.58 59.6027V59.6081ZM53.5133 59.3601C54.3221 58.0162 54.9956 56.5955 55.524 55.1187C55.6345 54.7885 55.6113 54.4281 55.4595 54.1146C55.3077 53.8012 55.0393 53.5596 54.7116 53.4415C54.384 53.3234 54.0232 53.3382 53.7063 53.4827C53.3894 53.6272 53.1417 53.8899 53.016 54.2147C52.5465 55.5242 51.949 56.784 51.232 57.9761C51.1411 58.1259 51.0806 58.2921 51.054 58.4653C51.0274 58.6384 51.0351 58.8151 51.0768 58.9853C51.1184 59.1555 51.1932 59.3158 51.2968 59.4571C51.4004 59.5984 51.5309 59.7179 51.6807 59.8087C51.9832 59.9923 52.3462 60.0481 52.6899 59.964C52.8601 59.9223 53.0204 59.8475 53.1617 59.7439C53.303 59.6403 53.4225 59.5099 53.5133 59.3601ZM56.6667 50.9214C57.1606 48.1986 57.3839 45.4335 57.3333 42.6667C57.3321 40.7778 56.7577 38.9337 55.6861 37.3781C54.6145 35.8226 53.0961 34.6288 51.3316 33.9545C49.5671 33.2803 47.6396 33.1572 45.8037 33.6017C43.9678 34.0463 42.31 35.0373 41.0493 36.4441C40.9266 36.5734 40.831 36.7261 40.7682 36.893C40.7055 37.0599 40.6769 37.2377 40.6841 37.4159C40.6913 37.5941 40.7342 37.769 40.8102 37.9304C40.8862 38.0917 40.9938 38.2361 41.1267 38.3551C41.2595 38.4741 41.4148 38.5652 41.5835 38.6231C41.7522 38.681 41.9307 38.7045 42.1086 38.6922C42.2865 38.6798 42.4602 38.6319 42.6192 38.5513C42.7783 38.4707 42.9195 38.3589 43.0347 38.2227C43.935 37.2178 45.1192 36.5097 46.4305 36.192C47.7419 35.8744 49.1188 35.9621 50.3793 36.4437C51.6397 36.9252 52.7244 37.7779 53.4899 38.889C54.2554 40.0002 54.6657 41.3174 54.6667 42.6667C54.7158 45.2625 54.5095 47.8567 54.0507 50.4121C53.9833 50.7589 54.0565 51.1184 54.254 51.4114C54.4515 51.7044 54.7572 51.907 55.104 51.9747C55.1887 51.9917 55.2749 52.0002 55.3613 52.0001C55.6702 51.9993 55.9691 51.8913 56.2072 51.6946C56.4453 51.4978 56.6077 51.2246 56.6667 50.9214ZM41.3333 42.6667C41.3329 42.2946 41.3637 41.9231 41.4253 41.5561C41.4651 41.3794 41.4685 41.1964 41.4353 41.0184C41.4021 40.8404 41.333 40.671 41.2321 40.5205C41.1313 40.3701 41.0008 40.2418 40.8488 40.1434C40.6967 40.0451 40.5262 39.9787 40.3476 39.9484C40.169 39.9181 39.9862 39.9245 39.8102 39.9672C39.6342 40.01 39.4687 40.0881 39.3239 40.1968C39.1791 40.3056 39.0579 40.4427 38.9679 40.5999C38.8778 40.757 38.8207 40.9308 38.8 41.1107C38.712 41.6247 38.6674 42.1452 38.6667 42.6667C38.6667 48.8601 36.872 52.0001 33.3333 52.0001C32.9797 52.0001 32.6406 52.1405 32.3905 52.3906C32.1405 52.6406 32 52.9798 32 53.3334C32 53.687 32.1405 54.0262 32.3905 54.2762C32.6406 54.5263 32.9797 54.6667 33.3333 54.6667C38.492 54.6667 41.3333 50.4001 41.3333 42.6667ZM59.6 59.2187C61.7943 53.9842 62.84 48.3399 62.6667 42.6667C62.6728 40.452 62.1711 38.2653 61.2 36.2747C61.1234 36.1171 61.0165 35.9762 60.8854 35.8599C60.7543 35.7436 60.6016 35.6543 60.436 35.5971C60.2705 35.5398 60.0952 35.5157 59.9203 35.5262C59.7454 35.5366 59.5743 35.5815 59.4167 35.6581C59.2591 35.7347 59.1181 35.8416 59.0019 35.9726C58.8856 36.1037 58.7963 36.2564 58.739 36.422C58.6817 36.5876 58.6576 36.7629 58.6681 36.9378C58.6786 37.1127 58.7234 37.2838 58.8 37.4414C59.5934 39.0688 60.0039 40.8562 60 42.6667C60.1678 47.9584 59.2046 53.225 57.1747 58.1147C57.1024 58.2744 57.0623 58.4468 57.0567 58.6219C57.0511 58.7971 57.0801 58.9717 57.142 59.1356C57.2039 59.2996 57.2976 59.4497 57.4176 59.5775C57.5376 59.7052 57.6816 59.808 57.8413 59.8801C58.014 59.9595 58.2019 60.0004 58.392 60.0001C58.647 59.999 58.8963 59.9248 59.1104 59.7863C59.3245 59.6478 59.4944 59.4508 59.6 59.2187ZM36 46.6667V42.6667C36.0035 39.4852 37.2689 36.435 39.5186 34.1854C41.7683 31.9357 44.8185 30.6703 48 30.6667C50.5978 30.6581 53.1269 31.5011 55.2 33.0667C55.4829 33.2789 55.8385 33.37 56.1886 33.32C56.5386 33.27 56.8545 33.083 57.0667 32.8001C57.2788 32.5172 57.3699 32.1616 57.3199 31.8115C57.2699 31.4614 57.0829 31.1456 56.8 30.9334C54.2658 29.0206 51.175 27.9904 48 28.0001C44.1116 28.0047 40.3837 29.5514 37.6342 32.3009C34.8846 35.0504 33.3379 38.7783 33.3333 42.6667V46.6667C33.3333 47.0204 33.4738 47.3595 33.7239 47.6095C33.9739 47.8596 34.313 48.0001 34.6667 48.0001C35.0203 48.0001 35.3594 47.8596 35.6095 47.6095C35.8595 47.3595 36 47.0204 36 46.6667Z" fill="#00694B"/>
</g>
</g>
<defs>
<filter id="filter0_d_1316_17346" x="0" y="0" width="96" height="96" filterUnits="userSpaceOnUse" color-interpolation-filters="sRGB">
<feFlood flood-opacity="0" result="BackgroundImageFix"/>
<feColorMatrix in="SourceAlpha" type="matrix" values="0 0 0 0 0 0 0 0 0 0 0 0 0 0 0 0 0 0 127 0" result="hardAlpha"/>
<feOffset dy="4"/>
<feGaussianBlur stdDeviation="10"/>
<feComposite in2="hardAlpha" operator="out"/>
<feColorMatrix type="matrix" values="0 0 0 0 0 0 0 0 0 0 0 0 0 0 0 0 0 0 0.1 0"/>
<feBlend mode="normal" in2="BackgroundImageFix" result="effect1_dropShadow_1316_17346"/>
<feBlend mode="normal" in="SourceGraphic" in2="effect1_dropShadow_1316_17346" result="shape"/>
</filter>
<clipPath id="clip0_1316_17346">
<rect width="32" height="32" fill="white" transform="translate(32 28)"/>
</clipPath>
</defs>
</svg>
