<svg width="96" height="96" viewBox="0 0 96 96" fill="none" xmlns="http://www.w3.org/2000/svg">
<g filter="url(#filter0_d_1316_17340)">
<rect x="20" y="16" width="56" height="56" rx="16" fill="white" shape-rendering="crispEdges"/>
<g clip-path="url(#clip0_1316_17340)">
<path d="M48 28C44.8355 28 41.7421 28.9384 39.1109 30.6965C36.4797 32.4546 34.4289 34.9534 33.2179 37.8771C32.0069 40.8007 31.6901 44.0177 32.3074 47.1214C32.9248 50.2251 34.4487 53.0761 36.6863 55.3137C38.9239 57.5513 41.7749 59.0752 44.8786 59.6926C47.9823 60.3099 51.1993 59.9931 54.1229 58.7821C57.0466 57.5711 59.5454 55.5203 61.3035 52.8891C63.0616 50.2579 64 47.1645 64 44C63.9954 39.7579 62.3082 35.6909 59.3087 32.6914C56.3091 29.6918 52.2421 28.0046 48 28ZM59.5293 37.3333H55.2347C54.2733 35.1053 53.0075 33.0214 51.4733 31.1413C54.8687 32.0652 57.7631 34.29 59.5293 37.3333ZM54 44C53.9891 45.3575 53.7751 46.7058 53.3653 48H42.6347C42.2249 46.7058 42.011 45.3575 42 44C42.011 42.6425 42.2249 41.2942 42.6347 40H53.3653C53.7751 41.2942 53.9891 42.6425 54 44ZM43.704 50.6667H52.296C51.1643 52.901 49.7175 54.9611 48 56.784C46.2818 54.9616 44.835 52.9014 43.704 50.6667ZM43.704 37.3333C44.8357 35.099 46.2825 33.0389 48 31.216C49.7182 33.0384 51.165 35.0986 52.296 37.3333H43.704ZM44.5333 31.1413C42.9969 33.021 41.7288 35.1049 40.7653 37.3333H36.4707C38.2385 34.2886 41.1356 32.0637 44.5333 31.1413ZM35.2813 40H39.8667C39.521 41.3055 39.3418 42.6495 39.3333 44C39.3418 45.3505 39.521 46.6945 39.8667 48H35.2813C34.4618 45.3963 34.4618 42.6037 35.2813 40ZM36.4707 50.6667H40.7653C41.7288 52.8951 42.9969 54.979 44.5333 56.8587C41.1356 55.9363 38.2385 53.7114 36.4707 50.6667ZM51.4733 56.8587C53.0075 54.9785 54.2733 52.8947 55.2347 50.6667H59.5293C57.7631 53.71 54.8687 55.9348 51.4733 56.8587ZM60.7187 48H56.1333C56.479 46.6945 56.6582 45.3505 56.6667 44C56.6582 42.6495 56.479 41.3055 56.1333 40H60.716C61.5356 42.6037 61.5356 45.3963 60.716 48H60.7187Z" fill="#00694B"/>
</g>
</g>
<defs>
<filter id="filter0_d_1316_17340" x="0" y="0" width="96" height="96" filterUnits="userSpaceOnUse" color-interpolation-filters="sRGB">
<feFlood flood-opacity="0" result="BackgroundImageFix"/>
<feColorMatrix in="SourceAlpha" type="matrix" values="0 0 0 0 0 0 0 0 0 0 0 0 0 0 0 0 0 0 127 0" result="hardAlpha"/>
<feOffset dy="4"/>
<feGaussianBlur stdDeviation="10"/>
<feComposite in2="hardAlpha" operator="out"/>
<feColorMatrix type="matrix" values="0 0 0 0 0 0 0 0 0 0 0 0 0 0 0 0 0 0 0.1 0"/>
<feBlend mode="normal" in2="BackgroundImageFix" result="effect1_dropShadow_1316_17340"/>
<feBlend mode="normal" in="SourceGraphic" in2="effect1_dropShadow_1316_17340" result="shape"/>
</filter>
<clipPath id="clip0_1316_17340">
<rect width="32" height="32" fill="white" transform="translate(32 28)"/>
</clipPath>
</defs>
</svg>
