<svg width="96" height="96" viewBox="0 0 96 96" fill="none" xmlns="http://www.w3.org/2000/svg">
<g filter="url(#filter0_d_1316_17352)">
<rect x="20" y="16" width="56" height="56" rx="16" fill="white" shape-rendering="crispEdges"/>
<path d="M37.9997 49.9999C35.9997 51.6799 35.333 56.6666 35.333 56.6666C35.333 56.6666 40.3197 55.9999 41.9997 53.9999C42.9463 52.8799 42.933 51.1599 41.8797 50.1199C41.3614 49.6253 40.6787 49.3395 39.9626 49.3173C39.2466 49.2952 38.5475 49.5383 37.9997 49.9999Z" fill="#00694B" stroke="#00694B" stroke-width="1.5" stroke-linecap="round" stroke-linejoin="round"/>
<path d="M48 48.0002L44 44.0002C44.7095 42.1594 45.6029 40.3949 46.6667 38.7335C48.2202 36.2495 50.3835 34.2042 52.9507 32.7923C55.5178 31.3803 58.4036 30.6487 61.3333 30.6668C61.3333 34.2935 60.2933 40.6668 53.3333 45.3335C51.6492 46.3985 49.8625 47.2918 48 48.0002Z" stroke="#00694B" stroke-width="1.5" stroke-linecap="round" stroke-linejoin="round"/>
<path d="M43.9997 44.0002H37.333C37.333 44.0002 38.0663 39.9602 39.9997 38.6669C42.1597 37.2269 46.6663 38.6669 46.6663 38.6669" stroke="#00694B" stroke-width="1.5" stroke-linecap="round" stroke-linejoin="round"/>
<path d="M48 48.0002V54.6668C48 54.6668 52.04 53.9335 53.3333 52.0002C54.7733 49.8402 53.3333 45.3335 53.3333 45.3335" stroke="#00694B" stroke-width="1.5" stroke-linecap="round" stroke-linejoin="round"/>
</g>
<defs>
<filter id="filter0_d_1316_17352" x="0" y="0" width="96" height="96" filterUnits="userSpaceOnUse" color-interpolation-filters="sRGB">
<feFlood flood-opacity="0" result="BackgroundImageFix"/>
<feColorMatrix in="SourceAlpha" type="matrix" values="0 0 0 0 0 0 0 0 0 0 0 0 0 0 0 0 0 0 127 0" result="hardAlpha"/>
<feOffset dy="4"/>
<feGaussianBlur stdDeviation="10"/>
<feComposite in2="hardAlpha" operator="out"/>
<feColorMatrix type="matrix" values="0 0 0 0 0 0 0 0 0 0 0 0 0 0 0 0 0 0 0.1 0"/>
<feBlend mode="normal" in2="BackgroundImageFix" result="effect1_dropShadow_1316_17352"/>
<feBlend mode="normal" in="SourceGraphic" in2="effect1_dropShadow_1316_17352" result="shape"/>
</filter>
</defs>
</svg>
