<svg width="40" height="40" viewBox="0 0 40 40" fill="none" xmlns="http://www.w3.org/2000/svg">
<rect width="40" height="40" rx="20" fill="#1C2628"/>
<path d="M20 24.5C22.0711 24.5 23.75 22.8211 23.75 20.75C23.75 18.6789 22.0711 17 20 17C17.9289 17 16.25 18.6789 16.25 20.75C16.25 22.8211 17.9289 24.5 20 24.5Z" fill="white"/>
<path d="M28.25 14H26.177C26.0376 14.0005 25.901 13.9618 25.7824 13.8885C25.6639 13.8152 25.5683 13.7102 25.5065 13.5853L24.8353 12.2435C24.6495 11.8689 24.3626 11.5539 24.0069 11.3341C23.6512 11.1143 23.2411 10.9986 22.823 11H17.177C16.7589 10.9986 16.3488 11.1143 15.9931 11.3341C15.6374 11.5539 15.3505 11.8689 15.1648 12.2435L14.4897 13.5853C14.4282 13.7096 14.3332 13.8143 14.2154 13.8875C14.0976 13.9608 13.9617 13.9998 13.823 14H11.75C11.1533 14 10.581 14.2371 10.159 14.659C9.73705 15.081 9.5 15.6533 9.5 16.25V26.75C9.5 27.3468 9.73705 27.9191 10.159 28.341C10.581 28.763 11.1533 29 11.75 29H28.25C28.8467 29 29.419 28.763 29.841 28.341C30.2629 27.9191 30.5 27.3468 30.5 26.75V16.25C30.5 15.6533 30.2629 15.081 29.841 14.659C29.419 14.2371 28.8467 14 28.25 14ZM20 26C18.9616 26 17.9466 25.6921 17.0833 25.1152C16.2199 24.5384 15.547 23.7184 15.1496 22.7591C14.7523 21.7998 14.6483 20.7442 14.8509 19.7258C15.0535 18.7074 15.5535 17.7719 16.2877 17.0377C17.0219 16.3035 17.9574 15.8035 18.9758 15.6009C19.9942 15.3983 21.0498 15.5023 22.0091 15.8996C22.9684 16.297 23.7883 16.9699 24.3652 17.8333C24.9421 18.6966 25.25 19.7117 25.25 20.75C25.2484 22.1419 24.6948 23.4763 23.7106 24.4606C22.7263 25.4448 21.3919 25.9984 20 26ZM27.5 17.75C27.3517 17.75 27.2067 17.706 27.0833 17.6236C26.96 17.5412 26.8639 17.4241 26.8071 17.287C26.7503 17.15 26.7355 16.9992 26.7644 16.8537C26.7934 16.7082 26.8648 16.5746 26.9697 16.4697C27.0746 16.3648 27.2082 16.2934 27.3537 16.2644C27.4992 16.2355 27.65 16.2503 27.787 16.3071C27.9241 16.3639 28.0412 16.46 28.1236 16.5833C28.206 16.7067 28.25 16.8517 28.25 17C28.25 17.1989 28.171 17.3897 28.0303 17.5303C27.8897 17.671 27.6989 17.75 27.5 17.75Z" fill="white"/>
</svg>
