<svg width="108" height="48" viewBox="0 0 108 48" fill="none" xmlns="http://www.w3.org/2000/svg">
<rect x="0.5" y="0.5" width="47" height="47" rx="23.5" stroke="#0D0D0D" stroke-opacity="0.65"/>
<path d="M20.5997 21.8798L25.1897 17.2898C25.3771 17.1036 25.6305 16.999 25.8947 16.999C26.1589 16.999 26.4123 17.1036 26.5997 17.2898C26.6934 17.3828 26.7678 17.4934 26.8186 17.6152C26.8694 17.7371 26.8955 17.8678 26.8955 17.9998C26.8955 18.1318 26.8694 18.2625 26.8186 18.3844C26.7678 18.5063 26.6934 18.6169 26.5997 18.7098L21.9997 23.2898C21.906 23.3828 21.8316 23.4934 21.7808 23.6152C21.73 23.7371 21.7039 23.8678 21.7039 23.9998C21.7039 24.1318 21.73 24.2625 21.7808 24.3844C21.8316 24.5063 21.906 24.6169 21.9997 24.7098L26.5997 29.2898C26.788 29.4768 26.8943 29.7309 26.8953 29.9963C26.8962 30.2616 26.7917 30.5165 26.6047 30.7048C26.4177 30.8931 26.1636 30.9994 25.8982 31.0004C25.6329 31.0013 25.378 30.8968 25.1897 30.7098L20.5997 26.1198C20.0379 25.5573 19.7223 24.7948 19.7223 23.9998C19.7223 23.2048 20.0379 22.4423 20.5997 21.8798Z" fill="#0D0D0D" fill-opacity="0.65"/>
<rect x="60.5" y="0.5" width="47" height="47" rx="23.5" stroke="#0D0D0D" stroke-opacity="0.65"/>
<path d="M87.4003 21.8798L82.8103 17.2898C82.6229 17.1036 82.3695 16.999 82.1053 16.999C81.8411 16.999 81.5877 17.1036 81.4003 17.2898C81.3066 17.3828 81.2322 17.4934 81.1814 17.6152C81.1306 17.7371 81.1045 17.8678 81.1045 17.9998C81.1045 18.1318 81.1306 18.2625 81.1814 18.3844C81.2322 18.5063 81.3066 18.6169 81.4003 18.7098L86.0003 23.2898C86.094 23.3828 86.1684 23.4934 86.2192 23.6152C86.27 23.7371 86.2961 23.8678 86.2961 23.9998C86.2961 24.1318 86.27 24.2625 86.2192 24.3844C86.1684 24.5063 86.094 24.6169 86.0003 24.7098L81.4003 29.2898C81.212 29.4768 81.1057 29.7309 81.1047 29.9963C81.1038 30.2616 81.2083 30.5165 81.3953 30.7048C81.5823 30.8931 81.8364 30.9994 82.1018 31.0004C82.3671 31.0013 82.622 30.8968 82.8103 30.7098L87.4003 26.1198C87.9621 25.5573 88.2777 24.7948 88.2777 23.9998C88.2777 23.2048 87.9621 22.4423 87.4003 21.8798Z" fill="#0D0D0D" fill-opacity="0.65"/>
</svg>
