<svg width="44" height="44" viewBox="0 0 44 44" fill="none" xmlns="http://www.w3.org/2000/svg">
<rect width="44" height="44" rx="22" fill="#00694B" fill-opacity="0.08"/>
<path d="M12.25 31H31.75M13.75 13V31M24.25 13V31M30.25 17.5V31M16.75 16.75H17.5M16.75 19.75H17.5M16.75 22.75H17.5M20.5 16.75H21.25M20.5 19.75H21.25M20.5 22.75H21.25M16.75 31V27.625C16.75 27.0037 17.2537 26.5 17.875 26.5H20.125C20.7463 26.5 21.25 27.0037 21.25 27.625V31M13 13H25M24.25 17.5H31M27.25 21.25H27.2575V21.2575H27.25V21.25ZM27.25 24.25H27.2575V24.2575H27.25V24.25ZM27.25 27.25H27.2575V27.2575H27.25V27.25Z" stroke="#00694B" stroke-width="1.5" stroke-linecap="round" stroke-linejoin="round"/>
</svg>
