<svg width="28" height="28" viewBox="0 0 28 28" fill="none" xmlns="http://www.w3.org/2000/svg">
<rect width="28" height="28" rx="14" fill="#0D0D0D"/>
<g clip-path="url(#clip0_6003_595)">
<path d="M21.3333 13.3333H14.6667V6.66667C14.6667 6.48986 14.5964 6.32029 14.4714 6.19526C14.3464 6.07024 14.1768 6 14 6C13.8232 6 13.6536 6.07024 13.5286 6.19526C13.4036 6.32029 13.3333 6.48986 13.3333 6.66667V13.3333H6.66667C6.48986 13.3333 6.32029 13.4036 6.19526 13.5286C6.07024 13.6536 6 13.8232 6 14C6 14.1768 6.07024 14.3464 6.19526 14.4714C6.32029 14.5964 6.48986 14.6667 6.66667 14.6667H13.3333V21.3333C13.3333 21.5101 13.4036 21.6797 13.5286 21.8047C13.6536 21.9298 13.8232 22 14 22C14.1768 22 14.3464 21.9298 14.4714 21.8047C14.5964 21.6797 14.6667 21.5101 14.6667 21.3333V14.6667H21.3333C21.5101 14.6667 21.6797 14.5964 21.8047 14.4714C21.9298 14.3464 22 14.1768 22 14C22 13.8232 21.9298 13.6536 21.8047 13.5286C21.6797 13.4036 21.5101 13.3333 21.3333 13.3333Z" fill="white"/>
</g>
<defs>
<clipPath id="clip0_6003_595">
<rect width="16" height="16" fill="white" transform="translate(6 6)"/>
</clipPath>
</defs>
</svg>
