<svg width="185" height="60" viewBox="0 0 185 60" fill="none" xmlns="http://www.w3.org/2000/svg">
<path d="M131.85 21.5582C134.639 21.173 136.218 22.0201 138.33 23.5895C138.376 23.0434 138.393 22.4514 138.42 21.9006C140.111 21.8543 141.804 21.8501 143.496 21.8881L143.484 40.5563L138.435 40.5391C138.457 40.054 138.539 39.2657 138.392 38.8333L138.235 38.8106L137.899 39.0881C134.928 41.4456 131.407 41.6326 128.209 39.4907C123.68 36.4578 122.932 29.4821 125.873 25.1191C127.348 22.9315 129.356 22.038 131.85 21.5582ZM134.202 35.7795C136.73 35.5603 138.598 33.327 138.366 30.8002C138.135 28.2733 135.892 26.4169 133.366 26.6612C130.858 26.9039 129.019 29.1272 129.248 31.6363C129.478 34.1453 131.692 35.9969 134.202 35.7795Z" fill="#00694B"/>
<path d="M72.2517 21.577C77.5648 20.9805 82.3575 24.7991 82.9631 30.1113C83.5688 35.4236 79.7584 40.223 74.4474 40.8377C69.1233 41.4538 64.31 37.6322 63.7029 32.3071C63.0959 26.982 66.9257 22.175 72.2517 21.577ZM73.8356 35.7857C76.3675 35.502 78.1859 33.2132 77.8896 30.6826C77.5934 28.1521 75.2958 26.3449 72.7668 26.6537C70.2553 26.9602 68.4635 29.2385 68.7577 31.7514C69.0517 34.2645 71.3213 36.0675 73.8356 35.7857Z" fill="white"/>
<path d="M93.6637 21.5787C98.9705 20.9697 103.77 24.7709 104.393 30.0771C105.017 35.3833 101.23 40.1931 95.9251 40.8308C90.6003 41.4708 85.768 37.6649 85.1423 32.3385C84.5167 27.012 88.3354 22.19 93.6637 21.5787ZM95.1931 35.7957C97.7348 35.5573 99.5951 33.2918 99.3359 30.7514C99.0754 28.2109 96.793 26.37 94.2549 26.6523C91.7483 26.9312 89.9345 29.1789 90.1918 31.6885C90.4489 34.198 92.681 36.0312 95.1931 35.7957Z" fill="white"/>
<path d="M167.875 21.457C168.207 21.4643 168.537 21.4753 168.87 21.4901C172.465 21.6578 175.211 23.5393 176.49 26.9147C177.302 29.0602 177.149 31.0913 177.043 33.3259C172.728 33.3088 168.025 33.4394 163.75 33.2904C165.281 37.1537 169.983 37.1829 172.92 34.8319L174.549 36.4584C174.986 36.9037 175.495 37.3608 175.953 37.7908C174.533 39.9422 171.785 40.7454 169.332 40.9354C162.912 41.4325 157.904 36.0003 158.861 29.608C159.601 24.6516 162.859 21.7807 167.875 21.457ZM163.643 29.5689L168.887 29.5564C169.924 29.555 171.517 29.6001 172.509 29.5211C171.754 26.7752 170.137 25.714 167.328 25.867C165.416 26.3435 163.982 27.5723 163.643 29.5689Z" fill="#00694B"/>
<path d="M60.5712 15.8208L60.607 15.8373C60.8905 16.5414 60.6691 31.3499 60.4667 32.7341C59.4463 39.7098 51.5124 42.7155 45.3938 39.9273C42.9697 38.8227 41.5216 37.2821 39.9434 34.9979C41.3501 34.078 42.6262 33.1656 43.989 32.1829C44.354 32.3321 44.3139 32.4243 44.5476 32.8234C44.8136 33.1413 45.1364 33.5388 45.4255 33.8316C46.6739 35.083 48.3606 35.799 50.128 35.8279C54.0662 35.8666 55.692 33.4037 55.6315 29.7488C55.5831 26.827 55.603 23.8296 55.6199 20.906L45.1422 20.916L45.1437 15.8105L60.5712 15.8208Z" fill="white"/>
<path d="M7.5712 14L23.056 14.0136C23.0574 15.8784 23.2927 29.8462 22.9136 30.4399L15.9096 30.4409L15.9017 20.9095L7.58157 20.9365C7.49393 18.7619 7.52923 16.1882 7.5712 14Z" fill="white"/>
<path d="M114.778 21.5654C117.995 21.2908 120.763 21.942 123.07 24.3636C122.677 24.919 120.228 27.4508 119.685 28.0042C118.255 27.1098 117.89 26.9778 116.289 26.5093C115.293 26.7537 114.594 26.8549 113.699 27.4114C110.313 29.5166 111.264 35.0137 115.269 35.6801C117.08 35.9812 118.21 35.4157 119.638 34.4091L121.507 36.2734C122.007 36.7243 122.592 37.3544 123.073 37.8445C122.038 39.3275 120.361 40.2694 118.61 40.6421C105.623 43.4061 101.33 24.2497 114.778 21.5654Z" fill="#00694B"/>
<path d="M0.00646043 30.4548C2.23808 30.3529 4.82744 30.4112 7.08536 30.4103C7.41829 35.669 9.81249 38.541 15.1175 39.1516C15.4963 39.2012 15.8756 39.2478 16.255 39.2917C16.2874 39.6582 16.1141 39.7305 16.12 39.7973C16.157 40.2137 16.7973 41.1615 16.7651 41.5079C16.6219 43.043 15.9743 44.2437 17.4785 45.5053L17.4889 45.717C11.7235 47.0799 4.66079 43.3442 1.93589 38.2442C0.414442 35.3968 -0.0627917 33.6434 0.00646043 30.4548Z" fill="#00694B"/>
<path d="M156.599 21.5679C156.887 21.5292 157.513 21.5152 157.828 21.498C157.801 23.082 157.798 24.6662 157.822 26.2502C152.188 26.6201 152.495 29.6471 152.484 34.11L152.466 40.5442C150.8 40.5104 149.07 40.5273 147.4 40.5217C147.308 34.3707 147.367 28.0724 147.358 21.9122C149.043 21.8778 150.728 21.8696 152.413 21.8878L152.455 23.5594C153.966 22.3026 154.69 21.9285 156.599 21.5679Z" fill="#00694B"/>
<path d="M15.1191 39.1533C17.6184 38.9562 19.5281 38.0947 21.1944 36.1486C21.8587 35.3764 22.3622 34.4794 22.6758 33.5104C22.8866 32.8625 23.1063 30.735 23.2835 30.6376C24.009 30.2385 29.5083 30.4296 30.2151 30.4363C30.2497 34.5309 28.9264 38.2386 26.0404 41.2018C24.294 42.995 20.0588 45.752 17.4905 45.7187L17.4801 45.507C15.976 44.2454 16.6236 43.0447 16.7667 41.5097C16.799 41.1633 16.1587 40.2154 16.1216 39.7991C16.1157 39.7323 16.289 39.6599 16.2567 39.2934C15.8772 39.2496 15.498 39.2029 15.1191 39.1533Z" fill="#00694B"/>
<path d="M180.743 33.8438C182.427 33.5335 184.042 34.6493 184.347 36.3332C184.653 38.0172 183.532 39.6288 181.847 39.9291C180.169 40.2281 178.566 39.1133 178.262 37.4365C177.958 35.7596 179.068 34.1528 180.743 33.8438Z" fill="#00694B"/>
<path d="M180.608 34.4108C181.768 34.0936 182.995 34.6122 183.578 35.6657C184.159 36.7192 183.945 38.0339 183.058 38.8476C182.718 39.1604 182.299 39.3768 181.847 39.4747C180.988 39.6609 180.092 39.4015 179.466 38.7846C178.801 38.1301 178.536 37.1701 178.772 36.2675C179.008 35.3647 179.708 34.6568 180.608 34.4108Z" fill="white"/>
</svg>
