<svg width="185" height="32" viewBox="0 0 185 32" fill="none" xmlns="http://www.w3.org/2000/svg">
<path d="M131.85 7.55865C134.639 7.17349 136.218 8.02058 138.33 9.58997C138.376 9.04384 138.393 8.45191 138.42 7.90109C140.111 7.8548 141.804 7.8506 143.496 7.88862L143.484 26.5568L138.435 26.5396C138.457 26.0544 138.539 25.2662 138.392 24.8338L138.235 24.8111L137.899 25.0886C134.928 27.4461 131.407 27.6331 128.209 25.4912C123.68 22.4583 122.932 15.4826 125.873 11.1196C127.348 8.932 129.356 8.03849 131.85 7.55865ZM134.202 21.7799C136.73 21.5608 138.598 19.3275 138.366 16.8007C138.135 14.2738 135.892 12.4174 133.366 12.6617C130.858 12.9044 129.019 15.1277 129.248 17.6368C129.478 20.1457 131.692 21.9973 134.202 21.7799Z" fill="#00694B"/>
<path d="M72.2517 7.57749C77.5648 6.98099 82.3575 10.7996 82.9631 16.1118C83.5688 21.4241 79.7584 26.2235 74.4474 26.8382C69.1233 27.4543 64.31 23.6327 63.7029 18.3076C63.0959 12.9825 66.9257 8.17547 72.2517 7.57749ZM73.8356 21.7862C76.3675 21.5025 78.1859 19.2137 77.8896 16.6831C77.5934 14.1526 75.2958 12.3454 72.7668 12.6541C70.2553 12.9607 68.4635 15.239 68.7577 17.7519C69.0517 20.265 71.3213 22.068 73.8356 21.7862Z" fill="#1C2628"/>
<path d="M93.6637 7.5787C98.9705 6.96974 103.77 10.7709 104.393 16.0771C105.017 21.3833 101.23 26.1931 95.9251 26.8308C90.6003 27.4708 85.768 23.6649 85.1423 18.3385C84.5167 13.012 88.3354 8.19002 93.6637 7.5787ZM95.1931 21.7957C97.7348 21.5573 99.5951 19.2918 99.3359 16.7514C99.0754 14.2109 96.793 12.37 94.2549 12.6523C91.7483 12.9312 89.9345 15.1789 90.1918 17.6885C90.4489 20.198 92.681 22.0312 95.1931 21.7957Z" fill="#1C2628"/>
<path d="M167.875 7.45752C168.207 7.4648 168.537 7.47578 168.87 7.4906C172.465 7.65824 175.211 9.53983 176.49 12.9151C177.302 15.0607 177.149 17.0918 177.043 19.3264C172.728 19.3092 168.025 19.4399 163.75 19.2909C165.281 23.1542 169.983 23.1834 172.92 20.8323L174.549 22.4589C174.986 22.9042 175.495 23.3613 175.953 23.7913C174.533 25.9427 171.785 26.7459 169.332 26.9358C162.912 27.433 157.904 22.0008 158.861 15.6085C159.601 10.6521 162.859 7.7812 167.875 7.45752ZM163.643 15.5694L168.887 15.5569C169.924 15.5554 171.517 15.6006 172.509 15.5216C171.754 12.7756 170.137 11.7145 167.328 11.8674C165.416 12.3439 163.982 13.5728 163.643 15.5694Z" fill="#00694B"/>
<path d="M60.5712 1.82079L60.607 1.83733C60.8905 2.54136 60.6691 17.3499 60.4667 18.7341C59.4463 25.7098 51.5124 28.7155 45.3938 25.9273C42.9697 24.8227 41.5216 23.2821 39.9434 20.9979C41.3501 20.078 42.6262 19.1656 43.989 18.1829C44.354 18.3321 44.3139 18.4243 44.5476 18.8234C44.8136 19.1413 45.1364 19.5388 45.4255 19.8316C46.6739 21.083 48.3606 21.799 50.128 21.8279C54.0662 21.8666 55.692 19.4037 55.6315 15.7488C55.5831 12.827 55.603 9.82959 55.6199 6.90597L45.1422 6.91597L45.1437 1.81055L60.5712 1.82079Z" fill="#1C2628"/>
<path d="M7.5712 0L23.056 0.0135774C23.0574 1.87838 23.2927 15.8462 22.9136 16.4399L15.9096 16.4409L15.9017 6.9095L7.58157 6.93653C7.49393 4.76187 7.52923 2.18824 7.5712 0Z" fill="#1C2628"/>
<path d="M114.778 7.56495C117.995 7.29028 120.763 7.94147 123.07 10.3631C122.677 10.9185 120.228 13.4503 119.685 14.0037C118.255 13.1094 117.89 12.9773 116.289 12.5088C115.293 12.7532 114.594 12.8544 113.699 13.4109C110.313 15.5161 111.264 21.0132 115.269 21.6796C117.08 21.9807 118.21 21.4152 119.638 20.4086L121.507 22.2729C122.007 22.7238 122.592 23.3539 123.073 23.844C122.038 25.327 120.361 26.2689 118.61 26.6416C105.623 29.4056 101.33 10.2492 114.778 7.56495Z" fill="#00694B"/>
<path d="M0.00646043 16.4548C2.23808 16.3529 4.82744 16.4112 7.08536 16.4103C7.41829 21.669 9.81249 24.541 15.1175 25.1516C15.4963 25.2012 15.8756 25.2478 16.255 25.2917C16.2874 25.6582 16.1141 25.7305 16.12 25.7973C16.157 26.2137 16.7973 27.1615 16.7651 27.5079C16.6219 29.043 15.9743 30.2437 17.4785 31.5053L17.4889 31.717C11.7235 33.0799 4.66079 29.3442 1.93589 24.2442C0.414442 21.3968 -0.0627917 19.6434 0.00646043 16.4548Z" fill="#00694B"/>
<path d="M156.599 7.56743C156.887 7.52866 157.513 7.51472 157.828 7.49756C157.801 9.08152 157.798 10.6657 157.822 12.2497C152.188 12.6197 152.495 15.6466 152.484 20.1095L152.466 26.5437C150.8 26.5099 149.07 26.5268 147.4 26.5212C147.308 20.3702 147.367 14.0719 147.358 7.91172C149.043 7.87728 150.728 7.86913 152.413 7.88728L152.455 9.55889C153.966 8.30207 154.69 7.92802 156.599 7.56743Z" fill="#00694B"/>
<path d="M15.1191 25.1533C17.6184 24.9562 19.5281 24.0947 21.1944 22.1486C21.8587 21.3764 22.3622 20.4794 22.6758 19.5104C22.8866 18.8625 23.1063 16.735 23.2835 16.6376C24.009 16.2385 29.5083 16.4296 30.2151 16.4363C30.2497 20.5309 28.9264 24.2386 26.0404 27.2018C24.294 28.995 20.0588 31.752 17.4905 31.7187L17.4801 31.507C15.976 30.2454 16.6236 29.0447 16.7667 27.5097C16.799 27.1633 16.1587 26.2154 16.1216 25.7991C16.1157 25.7323 16.289 25.6599 16.2567 25.2934C15.8772 25.2496 15.498 25.2029 15.1191 25.1533Z" fill="#00694B"/>
<path d="M180.743 19.8438C182.427 19.5335 184.042 20.6493 184.347 22.3332C184.653 24.0172 183.532 25.6288 181.847 25.9291C180.169 26.2281 178.566 25.1133 178.262 23.4365C177.958 21.7596 179.068 20.1528 180.743 19.8438Z" fill="#00694B"/>
<path d="M180.608 20.4104C181.768 20.0931 182.995 20.6117 183.578 21.6652C184.159 22.7187 183.945 24.0334 183.058 24.8471C182.718 25.1599 182.299 25.3763 181.847 25.4742C180.988 25.6605 180.092 25.401 179.466 24.7841C178.801 24.1296 178.536 23.1697 178.772 22.267C179.008 21.3642 179.708 20.6563 180.608 20.4104Z" fill="#1C2628"/>
</svg>
