<svg width="35" height="35" viewBox="0 0 35 35" fill="none" xmlns="http://www.w3.org/2000/svg">
<g clip-path="url(#clip0_1886_22613)">
<path d="M17.5 0C7.83651 0 0 7.83651 0 17.5C0 27.1635 7.83651 35 17.5 35C27.1635 35 35 27.1635 35 17.5C35 7.83651 27.1635 0 17.5 0ZM12.4147 26.4551H8.15268V13.6326H12.4147L12.4147 26.4551ZM10.2838 11.8817H10.256C8.82581 11.8817 7.90084 10.8972 7.90084 9.6667C7.90084 8.40848 8.85411 7.45117 10.3121 7.45117C11.7701 7.45117 12.6673 8.40848 12.6951 9.6667C12.6951 10.8972 11.7701 11.8817 10.2838 11.8817V11.8817ZM27.7828 26.4551H23.5213V19.5954C23.5213 17.8715 22.9042 16.6957 21.3621 16.6957C20.1847 16.6957 19.4836 17.4888 19.1754 18.2543C19.0627 18.5283 19.0352 18.9113 19.0352 19.2944V26.4551H14.7734C14.7734 26.4551 14.8293 14.8356 14.7734 13.6326H19.0352V15.4481C19.6016 14.5745 20.615 13.3317 22.8762 13.3317C25.6803 13.3317 27.7828 15.1643 27.7828 19.1027V26.4551Z" fill="#0466C8"/>
</g>
<defs>
<clipPath id="clip0_1886_22613">
<rect width="35" height="35" fill="white"/>
</clipPath>
</defs>
</svg>
