<svg width="154" height="60" viewBox="0 0 154 60" fill="none" xmlns="http://www.w3.org/2000/svg">
<g clip-path="url(#clip0_3191_21138)">
<path d="M51.8745 0H21.9582C13.697 0 7 6.71573 7 15V45C7 53.2843 13.697 60 21.9582 60H51.8745C60.1357 60 66.8327 53.2843 66.8327 45V15C66.8327 6.71573 60.1357 0 51.8745 0Z" fill="#00694B"/>
<path d="M42.8869 36.8809C43.6457 35.3726 44.3615 33.9528 45.1023 32.4808C45.3107 32.7057 45.5508 32.967 45.7932 33.2259C48.3145 35.9336 52.571 35.2567 54.1159 31.9038C55.5317 28.8281 53.6673 25.1867 50.3487 24.5438C47.2838 23.9509 44.4046 26.5042 44.3615 29.9025C44.3185 33.3736 42.8235 36.0881 39.9918 37.9872C37.022 39.9794 33.8484 40.2156 30.5479 38.6119V32.9056C30.7472 33.0464 30.8741 33.101 30.9534 33.1964C32.573 35.1364 35.1554 35.1909 36.5985 34.5412C38.7119 33.5894 39.7653 31.8561 39.8197 29.5686C39.9012 26.0135 41.4122 23.2513 44.3548 21.309C49.3203 18.0334 56.1773 20.2573 58.4245 25.8273C60.6649 31.3814 57.8536 37.4965 52.1247 39.248C48.7494 40.2793 45.7026 39.3729 43.05 37.0922C42.948 37.0059 42.8846 36.8741 42.8869 36.8764V36.8809Z" fill="white"/>
<path d="M41.4235 22.3816C40.5558 24.0376 39.8287 25.4232 39.088 26.8362C38.9951 26.7499 38.8637 26.6477 38.7595 26.525C37.1103 24.601 35.1758 24.0126 33.0124 24.7804C31.0235 25.4869 29.6123 27.5631 29.5987 29.8847C29.5806 33.1377 29.6123 36.3906 29.5964 39.6413C29.5806 42.9283 27.8204 45.5679 24.7555 46.7241C19.6405 48.655 14.3828 44.7206 14.6478 39.4618C14.8381 35.6887 17.4409 32.8469 21.2058 32.2699C22.2546 32.1086 23.2559 31.8542 23.9898 30.7593C23.9898 32.4811 24.1167 34.0213 23.9445 35.5297C23.829 36.5451 22.7689 36.72 21.8945 36.8631C20.5625 37.0812 19.6722 37.7785 19.312 39.1006C18.8929 40.6408 19.9418 42.2173 21.609 42.5512C23.1381 42.8579 24.8348 41.7016 24.9028 40.1569C25.0024 37.899 24.9299 35.6342 24.982 33.3716C25.0273 31.4544 24.9277 29.5008 25.2765 27.6335C25.9493 24.0194 28.1987 21.5638 31.6556 20.3349C34.9901 19.1468 38.0505 19.8487 40.8232 21.9863C41.0474 22.1589 41.2943 22.3021 41.4212 22.3861L41.4235 22.3816Z" fill="white"/>
<path d="M27.2633 12.7775C28.7788 12.7638 30.0247 14.0018 30.0202 15.5193C30.0157 16.9595 28.7539 18.2679 27.3449 18.2929C25.8362 18.3202 24.5925 17.1026 24.5631 15.5693C24.5314 14.0473 25.7478 12.7911 27.2633 12.7775Z" fill="white"/>
<path d="M132.03 40.7848V19.2461H136.185V40.7848H132.03ZM135.085 40.7848V37.1082H146.97V40.7848H135.085ZM135.085 31.5627V28.0087H145.901V31.5627H135.085ZM135.085 22.9227V19.2461H146.818V22.9227H135.085Z" fill="#121212"/>
<path d="M115.959 31.7771V28.5295H120.94C121.958 28.5295 122.742 28.2742 123.292 27.7635C123.863 27.2324 124.147 26.5074 124.147 25.5882C124.147 24.7508 123.863 24.0563 123.292 23.5048C122.742 22.9329 121.958 22.6469 120.94 22.6469H115.959V19.2461H121.306C122.692 19.2461 123.903 19.5218 124.942 20.0733C126.001 20.6044 126.816 21.3397 127.386 22.2793C127.977 23.2189 128.272 24.3014 128.272 25.5269C128.272 26.7933 127.977 27.8963 127.386 28.8358C126.816 29.755 126.001 30.4801 124.942 31.0112C123.883 31.5218 122.651 31.7771 121.245 31.7771H115.959ZM112.904 40.7848V19.2461H117.06V40.7848H112.904ZM124.637 40.7848L117.548 31.4708L121.367 30.2758L129.678 40.7848H124.637Z" fill="#121212"/>
<path d="M89.7139 40.7848L98.3603 19.2461H101.751L110.367 40.7848H105.937L99.2765 23.1065H100.804L94.0523 40.7848H89.7139ZM94.2966 36.7712V33.2784H105.846V36.7712H94.2966Z" fill="#121212"/>
<path d="M80.8539 41.0913C79.2857 41.0913 77.8292 40.8155 76.4846 40.2641C75.1405 39.6921 73.9593 38.9057 72.9404 37.9049C71.9423 36.8836 71.1683 35.6989 70.6184 34.3509C70.0888 33.0028 69.8242 31.5526 69.8242 30.0002C69.8242 28.4479 70.0888 26.9976 70.6184 25.6496C71.1683 24.3015 71.9423 23.127 72.9404 22.1262C73.9593 21.1253 75.1304 20.3389 76.4543 19.767C77.7984 19.1951 79.2649 18.9092 80.8539 18.9092C82.5648 18.9092 84.0723 19.1951 85.3754 19.767C86.679 20.3185 87.8299 21.0845 88.828 22.0649L86.0174 24.8836C85.4265 24.23 84.7036 23.7194 83.8482 23.3517C82.9927 22.9841 81.9946 22.8002 80.8539 22.8002C79.8558 22.8002 78.9391 22.9739 78.1039 23.321C77.2895 23.6479 76.5762 24.1381 75.9656 24.7917C75.3545 25.4249 74.886 26.1909 74.5597 27.0896C74.234 27.9679 74.0711 28.9381 74.0711 30.0002C74.0711 31.0828 74.234 32.0632 74.5597 32.9415C74.886 33.8198 75.3545 34.5857 75.9656 35.2394C76.5762 35.8726 77.2895 36.3628 78.1039 36.71C78.9391 37.0573 79.8558 37.2308 80.8539 37.2308C82.0553 37.2308 83.0843 37.047 83.9397 36.6794C84.8154 36.3117 85.5489 35.7909 86.1393 35.1168L88.9505 37.9355C87.9524 38.9364 86.7914 39.7126 85.4675 40.2641C84.1431 40.8155 82.6057 41.0913 80.8539 41.0913Z" fill="#121212"/>
</g>
<defs>
<clipPath id="clip0_3191_21138">
<rect width="140" height="60" fill="white" transform="translate(7)"/>
</clipPath>
</defs>
</svg>
