<svg width="120" height="24" viewBox="0 0 120 24" fill="none" xmlns="http://www.w3.org/2000/svg">
<path d="M21.1928 11.5397C21.6978 11.0477 21.8768 10.3257 21.6588 9.65474C21.4408 8.98374 20.8718 8.50474 20.1748 8.40274L15.7948 7.76574C15.7548 7.75985 15.7167 7.74431 15.6839 7.72044C15.6512 7.69657 15.6247 7.6651 15.6068 7.62874L13.6488 3.66074C13.3368 3.02874 12.7048 2.63574 11.9998 2.63574C11.2948 2.63574 10.6628 3.02974 10.3508 3.66074L8.39285 7.62874C8.3751 7.66521 8.34868 7.69677 8.31591 7.72065C8.28313 7.74454 8.245 7.76002 8.20485 7.76574L3.82685 8.40274C3.12885 8.50474 2.55885 8.98374 2.34185 9.65474C2.12485 10.3257 2.30285 11.0477 2.80785 11.5397L5.97585 14.6277C6.03585 14.6857 6.06185 14.7687 6.04785 14.8497L5.29985 19.2097C5.24038 19.5481 5.27752 19.8964 5.40699 20.2146C5.53647 20.5328 5.75304 20.808 6.03185 21.0087C6.30875 21.2117 6.6372 21.3325 6.97959 21.3574C7.32197 21.3824 7.66447 21.3104 7.96785 21.1497L11.8838 19.0907C11.9199 19.0716 11.96 19.0615 12.0008 19.0615C12.0417 19.0615 12.0818 19.0716 12.1178 19.0907L16.0338 21.1497C16.3372 21.31 16.6794 21.3817 17.0216 21.3568C17.3637 21.3318 17.6919 21.2112 17.9688 21.0087C18.2477 20.8081 18.4644 20.5329 18.5939 20.2146C18.7234 19.8964 18.7604 19.5481 18.7008 19.2097L17.9528 14.8497C17.9461 14.8097 17.9491 14.7686 17.9616 14.7299C17.9741 14.6912 17.9958 14.6562 18.0248 14.6277L21.1928 11.5397Z" fill="#0D0D0D" fill-opacity="0.08"/>
<path d="M45.1928 11.5397C45.6978 11.0477 45.8768 10.3257 45.6588 9.65474C45.4408 8.98374 44.8718 8.50474 44.1748 8.40274L39.7948 7.76574C39.7548 7.75985 39.7167 7.74431 39.6839 7.72044C39.6512 7.69657 39.6247 7.6651 39.6068 7.62874L37.6488 3.66074C37.3368 3.02874 36.7048 2.63574 35.9998 2.63574C35.2948 2.63574 34.6628 3.02974 34.3508 3.66074L32.3928 7.62874C32.3751 7.66521 32.3487 7.69677 32.3159 7.72065C32.2831 7.74454 32.245 7.76002 32.2048 7.76574L27.8268 8.40274C27.1288 8.50474 26.5588 8.98374 26.3418 9.65474C26.1248 10.3257 26.3028 11.0477 26.8078 11.5397L29.9758 14.6277C30.0358 14.6857 30.0618 14.7687 30.0478 14.8497L29.2998 19.2097C29.2404 19.5481 29.2775 19.8964 29.407 20.2146C29.5365 20.5328 29.753 20.808 30.0318 21.0087C30.3088 21.2117 30.6372 21.3325 30.9796 21.3574C31.322 21.3824 31.6645 21.3104 31.9678 21.1497L35.8838 19.0907C35.9199 19.0716 35.96 19.0615 36.0008 19.0615C36.0417 19.0615 36.0818 19.0716 36.1178 19.0907L40.0338 21.1497C40.3372 21.31 40.6794 21.3817 41.0216 21.3568C41.3637 21.3318 41.6919 21.2112 41.9688 21.0087C42.2477 20.8081 42.4644 20.5329 42.5939 20.2146C42.7234 19.8964 42.7604 19.5481 42.7008 19.2097L41.9528 14.8497C41.9461 14.8097 41.9491 14.7686 41.9616 14.7299C41.9741 14.6912 41.9958 14.6562 42.0248 14.6277L45.1928 11.5397Z" fill="#E8CC5C"/>
<path d="M69.1928 11.5397C69.6978 11.0477 69.8768 10.3257 69.6588 9.65474C69.4408 8.98374 68.8718 8.50474 68.1748 8.40274L63.7948 7.76574C63.7548 7.75985 63.7167 7.74431 63.6839 7.72044C63.6512 7.69657 63.6247 7.6651 63.6068 7.62874L61.6488 3.66074C61.3368 3.02874 60.7048 2.63574 59.9998 2.63574C59.2948 2.63574 58.6628 3.02974 58.3508 3.66074L56.3928 7.62874C56.3751 7.66521 56.3487 7.69677 56.3159 7.72065C56.2831 7.74454 56.245 7.76002 56.2048 7.76574L51.8268 8.40274C51.1288 8.50474 50.5588 8.98374 50.3418 9.65474C50.1248 10.3257 50.3028 11.0477 50.8078 11.5397L53.9758 14.6277C54.0358 14.6857 54.0618 14.7687 54.0478 14.8497L53.2998 19.2097C53.2404 19.5481 53.2775 19.8964 53.407 20.2146C53.5365 20.5328 53.753 20.808 54.0318 21.0087C54.3088 21.2117 54.6372 21.3325 54.9796 21.3574C55.322 21.3824 55.6645 21.3104 55.9678 21.1497L59.8838 19.0907C59.9199 19.0716 59.96 19.0615 60.0008 19.0615C60.0417 19.0615 60.0818 19.0716 60.1178 19.0907L64.0338 21.1497C64.3372 21.31 64.6794 21.3817 65.0216 21.3568C65.3637 21.3318 65.6919 21.2112 65.9688 21.0087C66.2477 20.8081 66.4644 20.5329 66.5939 20.2146C66.7234 19.8964 66.7604 19.5481 66.7008 19.2097L65.9528 14.8497C65.9461 14.8097 65.9491 14.7686 65.9616 14.7299C65.9741 14.6912 65.9958 14.6562 66.0248 14.6277L69.1928 11.5397Z" fill="#E8CC5C"/>
<path d="M93.1928 11.5397C93.6978 11.0477 93.8768 10.3257 93.6588 9.65474C93.4408 8.98374 92.8718 8.50474 92.1748 8.40274L87.7948 7.76574C87.7548 7.75985 87.7167 7.74431 87.6839 7.72044C87.6512 7.69657 87.6247 7.6651 87.6068 7.62874L85.6488 3.66074C85.3368 3.02874 84.7048 2.63574 83.9998 2.63574C83.2948 2.63574 82.6628 3.02974 82.3508 3.66074L80.3928 7.62874C80.3751 7.66521 80.3487 7.69677 80.3159 7.72065C80.2831 7.74454 80.245 7.76002 80.2048 7.76574L75.8268 8.40274C75.1288 8.50474 74.5588 8.98374 74.3418 9.65474C74.1248 10.3257 74.3028 11.0477 74.8078 11.5397L77.9758 14.6277C78.0358 14.6857 78.0618 14.7687 78.0478 14.8497L77.2998 19.2097C77.2404 19.5481 77.2775 19.8964 77.407 20.2146C77.5365 20.5328 77.753 20.808 78.0318 21.0087C78.3088 21.2117 78.6372 21.3325 78.9796 21.3574C79.322 21.3824 79.6645 21.3104 79.9678 21.1497L83.8838 19.0907C83.9199 19.0716 83.96 19.0615 84.0008 19.0615C84.0417 19.0615 84.0818 19.0716 84.1178 19.0907L88.0338 21.1497C88.3372 21.31 88.6794 21.3817 89.0216 21.3568C89.3637 21.3318 89.6919 21.2112 89.9688 21.0087C90.2477 20.8081 90.4644 20.5329 90.5939 20.2146C90.7234 19.8964 90.7604 19.5481 90.7008 19.2097L89.9528 14.8497C89.9461 14.8097 89.9491 14.7686 89.9616 14.7299C89.9741 14.6912 89.9958 14.6562 90.0248 14.6277L93.1928 11.5397Z" fill="#E8CC5C"/>
<path d="M117.193 11.5397C117.698 11.0477 117.877 10.3257 117.659 9.65474C117.441 8.98374 116.872 8.50474 116.175 8.40274L111.795 7.76574C111.755 7.75985 111.717 7.74431 111.684 7.72044C111.651 7.69657 111.625 7.6651 111.607 7.62874L109.649 3.66074C109.337 3.02874 108.705 2.63574 108 2.63574C107.295 2.63574 106.663 3.02974 106.351 3.66074L104.393 7.62874C104.375 7.66521 104.349 7.69677 104.316 7.72065C104.283 7.74454 104.245 7.76002 104.205 7.76574L99.8268 8.40274C99.1288 8.50474 98.5588 8.98374 98.3418 9.65474C98.1248 10.3257 98.3028 11.0477 98.8078 11.5397L101.976 14.6277C102.036 14.6857 102.062 14.7687 102.048 14.8497L101.3 19.2097C101.24 19.5481 101.278 19.8964 101.407 20.2146C101.536 20.5328 101.753 20.808 102.032 21.0087C102.309 21.2117 102.637 21.3325 102.98 21.3574C103.322 21.3824 103.664 21.3104 103.968 21.1497L107.884 19.0907C107.92 19.0716 107.96 19.0615 108.001 19.0615C108.042 19.0615 108.082 19.0716 108.118 19.0907L112.034 21.1497C112.337 21.31 112.679 21.3817 113.022 21.3568C113.364 21.3318 113.692 21.2112 113.969 21.0087C114.248 20.8081 114.464 20.5329 114.594 20.2146C114.723 19.8964 114.76 19.5481 114.701 19.2097L113.953 14.8497C113.946 14.8097 113.949 14.7686 113.962 14.7299C113.974 14.6912 113.996 14.6562 114.025 14.6277L117.193 11.5397Z" fill="#E8CC5C"/>
</svg>
