<svg width="35" height="35" viewBox="0 0 35 35" fill="none" xmlns="http://www.w3.org/2000/svg">
<path fill-rule="evenodd" clip-rule="evenodd" d="M17.4004 0.550781C8.05389 0.550781 0.460938 8.144 0.460938 17.4904C0.460938 26.8369 8.05395 34.4296 17.4004 34.4296C26.7468 34.4296 34.3398 26.8369 34.3398 17.4904C34.3398 8.14394 26.7469 0.550781 17.4004 0.550781ZM27.5408 22.9658C27.4251 23.2471 26.8791 23.6439 24.9603 23.942C24.7948 23.9747 24.7453 24.1733 24.6459 24.6037C24.6151 24.7599 24.5765 24.9145 24.5302 25.0668C24.4805 25.2154 24.3978 25.2818 24.249 25.2818H24.2324C24.0867 25.2784 23.9422 25.2561 23.8023 25.2155C23.4201 25.1457 23.0328 25.1071 22.6443 25.0999C22.3672 25.0979 22.0904 25.12 21.8172 25.1659C21.2382 25.2654 20.7585 25.6126 20.2292 25.9766C19.4847 26.5061 18.7072 27.0519 17.4996 27.0519H17.235C16.0273 27.0519 15.2498 26.5061 14.5054 25.9766C13.9927 25.6126 13.4964 25.2654 12.9175 25.1658C12.6442 25.12 12.3674 25.0979 12.0903 25.1C11.7009 25.1067 11.3131 25.151 10.9323 25.2322C10.7911 25.2667 10.6472 25.2888 10.5021 25.2981C10.4347 25.3055 10.3669 25.2876 10.3119 25.2479C10.2569 25.2082 10.2186 25.1495 10.2044 25.0832C10.1548 24.9178 10.1217 24.7523 10.0885 24.6037C10.0058 24.2065 9.93972 23.9747 9.77429 23.942C7.8553 23.6439 7.30945 23.2471 7.19365 22.9658C7.17492 22.924 7.16372 22.8792 7.16057 22.8335C7.15946 22.7817 7.17735 22.7312 7.21086 22.6916C7.24438 22.652 7.29121 22.6261 7.34254 22.6186C10.2871 22.1223 11.6105 19.1115 11.6601 18.9792H11.6767C11.8586 18.6152 11.8917 18.2844 11.7759 18.0363C11.5774 17.5563 10.9157 17.3413 10.4856 17.2091C10.3848 17.181 10.2854 17.1477 10.1879 17.1095C9.31108 16.7623 9.24491 16.4151 9.278 16.2329C9.34417 15.9189 9.7412 15.7035 10.0885 15.7035C10.1685 15.7024 10.2477 15.7195 10.3201 15.7535C10.7172 15.9353 11.0646 16.0343 11.3623 16.0343C11.7925 16.0343 11.9744 15.8525 11.9909 15.8362C11.9909 15.6376 11.9744 15.4226 11.9579 15.2072C11.8752 13.8179 11.7594 12.081 12.206 11.0884C13.5294 8.12712 16.3251 7.89579 17.1522 7.89579H17.5658C18.3929 7.89579 21.2051 8.12712 22.5285 11.0884C22.9752 12.081 22.8594 13.818 22.7767 15.2072V15.2735C22.7601 15.4554 22.7436 15.654 22.7436 15.8361C22.7601 15.8525 22.9255 16.018 23.306 16.0343C23.6038 16.0179 23.9347 15.9189 24.2986 15.7535C24.3979 15.7108 24.5047 15.6882 24.6129 15.6871C24.7333 15.6891 24.8519 15.7173 24.9603 15.7698H24.9768C25.258 15.8689 25.4565 16.0843 25.4565 16.2993C25.473 16.4979 25.3076 16.8119 24.5467 17.1095C24.464 17.1428 24.3647 17.1759 24.2655 17.2091C23.8188 17.3413 23.1571 17.5563 22.9586 18.0363C22.8428 18.2844 22.8758 18.6153 23.0578 18.9792H23.0744C23.124 19.1115 24.4474 22.1223 27.3919 22.6186C27.4433 22.6261 27.4901 22.652 27.5236 22.6916C27.5571 22.7312 27.575 22.7817 27.5739 22.8335C27.5708 22.8792 27.5596 22.924 27.5408 22.9658Z" fill="#F5CE0B"/>
</svg>
