<svg width="16" height="16" viewBox="0 0 16 16" fill="none" xmlns="http://www.w3.org/2000/svg">
<path d="M6.54213 10.6025L6 12.5L5.45787 10.6025C5.17312 9.60592 4.39408 8.82688 3.39746 8.54213L1.5 8L3.39746 7.45787C4.39408 7.17312 5.17312 6.39408 5.45787 5.39746L6 3.5L6.54213 5.39746C6.82688 6.39408 7.60592 7.17312 8.60254 7.45787L10.5 8L8.60254 8.54213C7.60592 8.82688 6.82688 9.60592 6.54213 10.6025Z" stroke="#00694B" stroke-linecap="round" stroke-linejoin="round"/>
<path d="M12.1726 5.80969L12 6.5L11.8274 5.80969C11.6259 5.00355 10.9964 4.37411 10.1903 4.17258L9.5 4L10.1903 3.82742C10.9964 3.62589 11.6259 2.99645 11.8274 2.19031L12 1.5L12.1726 2.19031C12.3741 2.99645 13.0036 3.62589 13.8097 3.82742L14.5 4L13.8097 4.17258C13.0036 4.37411 12.3741 5.00355 12.1726 5.80969Z" stroke="#00694B" stroke-linecap="round" stroke-linejoin="round"/>
<path d="M11.2628 13.7115L11 14.5L10.7372 13.7115C10.5879 13.2636 10.2364 12.9121 9.78849 12.7628L9 12.5L9.78849 12.2372C10.2364 12.0879 10.5879 11.7364 10.7372 11.2885L11 10.5L11.2628 11.2885C11.4121 11.7364 11.7636 12.0879 12.2115 12.2372L13 12.5L12.2115 12.7628C11.7636 12.9121 11.4121 13.2636 11.2628 13.7115Z" stroke="#00694B" stroke-linecap="round" stroke-linejoin="round"/>
</svg>
