<svg width="35" height="35" viewBox="0 0 35 35" fill="none" xmlns="http://www.w3.org/2000/svg">
<g clip-path="url(#clip0_1886_22643)">
<path d="M17.5 0C7.83535 0 0 7.83535 0 17.5C0 27.1647 7.83535 35 17.5 35C27.1647 35 35 27.1647 35 17.5C35 7.83535 27.1647 0 17.5 0Z" fill="#0D0D0D"/>
<path d="M19.4149 15.9163L26.9064 7.20801H25.1312L18.6262 14.7693L13.4308 7.20801H7.43848L15.295 18.642L7.43848 27.774H9.21383L16.0832 19.789L21.5699 27.774H27.5623L19.4149 15.9163ZM9.85351 8.54448H12.5803L25.132 26.4983H22.4051L9.85351 8.54448Z" fill="white"/>
</g>
<defs>
<clipPath id="clip0_1886_22643">
<rect width="35" height="35" fill="white"/>
</clipPath>
</defs>
</svg>
