<svg width="16" height="16" viewBox="0 0 16 16" fill="none" xmlns="http://www.w3.org/2000/svg">
<path d="M0 8.76853C2.49925 8.57139 4.40893 7.70997 6.0753 5.76382C6.73955 4.99165 7.24308 4.09468 7.55663 3.12561C7.76747 2.47776 7.9872 0.35026 8.16434 0.25286C8.88982 -0.146247 14.3891 0.0448526 15.096 0.0515187C15.1305 4.14616 13.8072 7.85379 10.9212 10.817C9.17486 12.6102 4.93961 15.3672 2.37136 15.334L2.36099 15.1223C0.856826 13.8606 1.50441 12.66 1.64761 11.1249C1.67982 10.7785 1.03952 9.83068 1.00249 9.41429C0.996564 9.34751 1.16988 9.27516 1.13754 8.90865C0.75807 8.86482 0.37885 8.81816 0 8.76853Z" fill="#00694B"/>
</svg>
