<svg width="18" height="18" viewBox="0 0 18 18" fill="none" xmlns="http://www.w3.org/2000/svg">
<path d="M14.3115 6.25861C14.9839 6.25834 15.6384 6.04148 16.178 5.64016C16.7175 5.23883 17.1135 4.67439 17.3071 4.03045C17.5008 3.38651 17.4818 2.69732 17.2531 2.06498C17.0244 1.43264 16.5981 0.890792 16.0373 0.519696C15.4765 0.1486 14.8111 -0.0319978 14.1397 0.00465371C13.4682 0.0413052 12.8264 0.293257 12.3094 0.723186C11.7923 1.15312 11.4275 1.73815 11.269 2.39163C11.1105 3.0451 11.1667 3.73226 11.4293 4.3513L6.43937 9.34097L6.39399 9.38791H4.56326C3.94099 9.38846 3.3444 9.63609 2.90466 10.0764L0.343207 12.6377C0.179293 12.8018 0.0676895 13.0108 0.0224934 13.2383C-0.0227026 13.4658 0.000535654 13.7016 0.0892732 13.9159C0.178011 14.1302 0.328268 14.3134 0.521066 14.4423C0.713864 14.5713 0.940556 14.6402 1.17251 14.6404H2.79982V16.2677C2.80003 16.4996 2.86896 16.7263 2.99793 16.9191C3.12689 17.1119 3.3101 17.2621 3.52441 17.3509C3.73872 17.4396 3.97452 17.4628 4.20203 17.4176C4.42954 17.3724 4.63855 17.2609 4.80267 17.0969L7.36412 14.534C7.80402 14.0947 8.05163 13.4988 8.0526 12.8771V11.0464L8.09954 11.0011L13.0879 6.01296C13.4634 6.17255 13.8765 6.26017 14.3099 6.26017M6.39242 10.9541L6.48631 11.0464V12.8771C6.48585 13.0844 6.40312 13.283 6.25629 13.4294L4.36298 15.3226V13.8597C4.36298 13.6522 4.28055 13.4532 4.13383 13.3065C3.98711 13.1598 3.78811 13.0774 3.58062 13.0774H2.11604L4.00935 11.1841C4.08207 11.1108 4.16859 11.0525 4.26393 11.0128C4.35927 10.9731 4.46154 10.9526 4.56483 10.9526L6.39242 10.9541Z" fill="white"/>
</svg>
