<svg width="28" height="28" viewBox="0 0 28 28" fill="none" xmlns="http://www.w3.org/2000/svg">
<path d="M2.35025 13.6891C2.35111 11.2596 3.132 8.89455 4.57795 6.94212C6.02391 4.98969 8.05853 3.55306 10.3823 2.84371C12.7061 2.13436 15.1962 2.18978 17.4861 3.0018C19.776 3.81382 21.7447 5.33955 23.1023 7.35437C24.46 9.36918 25.1349 11.7666 25.0277 14.1938C24.9204 16.6209 24.0368 18.9495 22.5067 20.8368C20.9767 22.7241 18.8811 24.0702 16.5285 24.6772C14.1759 25.2841 11.6906 25.1198 9.43844 24.2083C9.29464 24.145 9.13961 24.1113 8.98253 24.109C8.82544 24.1068 8.66951 24.1361 8.52398 24.1953C8.37844 24.2544 8.24627 24.3422 8.13528 24.4534C8.0243 24.5646 7.93677 24.6969 7.87788 24.8425C7.819 24.9882 7.78995 25.1442 7.79247 25.3012C7.79499 25.4583 7.82902 25.6133 7.89255 25.7569C7.95608 25.9006 8.0478 26.0301 8.16229 26.1376C8.27678 26.2452 8.41171 26.3287 8.55907 26.3831C11.4864 27.5667 14.733 27.7021 17.7487 26.7664C20.7645 25.8307 23.3642 23.8814 25.1073 21.2486C26.8505 18.6159 27.63 15.4616 27.3139 12.32C26.9977 9.17838 25.6053 6.24261 23.3726 4.00993C21.1398 1.77726 18.2039 0.384945 15.0621 0.0688142C11.9204 -0.247317 8.76591 0.532173 6.13305 2.27525C3.50019 4.01833 1.55078 6.61784 0.615024 9.63348C-0.320736 12.6491 -0.185323 15.8955 0.998326 18.8227C1.05278 18.9701 1.13627 19.105 1.24384 19.2195C1.35141 19.334 1.48088 19.4257 1.62456 19.4892C1.76824 19.5528 1.92321 19.5868 2.08029 19.5893C2.23737 19.5918 2.39335 19.5628 2.53899 19.5039C2.68464 19.445 2.81698 19.3575 2.92816 19.2465C3.03935 19.1355 3.12712 19.0034 3.18627 18.8578C3.24543 18.7123 3.27476 18.5564 3.27253 18.3993C3.2703 18.2422 3.23655 18.0872 3.17329 17.9434C2.62622 16.5919 2.3467 15.1471 2.35025 13.6891Z" fill="white"/>
</svg>
