<svg width="52" height="52" viewBox="0 0 52 52" fill="none" xmlns="http://www.w3.org/2000/svg">
<path d="M26.0002 4.33301C14.0835 4.33301 4.3335 14.083 4.3335 25.9997C4.3335 37.9163 14.0835 47.6663 26.0002 47.6663C37.9168 47.6663 47.6668 37.9163 47.6668 25.9997C47.6668 14.083 37.9168 4.33301 26.0002 4.33301ZM26.0002 43.333C16.4668 43.333 8.66683 35.533 8.66683 25.9997C8.66683 16.4663 16.4668 8.66634 26.0002 8.66634C35.5335 8.66634 43.3335 16.4663 43.3335 25.9997C43.3335 35.533 35.5335 43.333 26.0002 43.333Z" fill="#0D0D0D"/>
<path d="M26.2166 15.8164H25.9999C23.8332 15.8164 21.8832 16.8997 20.7999 18.6331C19.9332 19.7164 20.1499 21.0164 21.2332 21.6664C22.3166 22.3164 23.6166 22.0997 24.2666 21.0164C24.6999 20.3664 25.3499 20.1497 25.9999 20.1497H26.2166C27.2999 20.1497 28.1666 21.0164 28.1666 22.0997C28.1666 22.9664 27.5166 23.8331 26.8666 24.0497L25.3499 24.4831C24.4832 24.6997 23.8332 25.5664 23.8332 26.4331V28.1664C23.8332 29.4664 24.6999 30.3331 25.9999 30.3331C27.0832 30.3331 28.1666 29.4664 28.1666 28.3831C30.7666 27.5164 32.4999 25.1331 32.4999 22.3164C32.4999 18.8497 29.6832 15.8164 26.2166 15.8164Z" fill="#0D0D0D"/>
<path d="M26.0002 36.8333C27.1968 36.8333 28.1668 35.8633 28.1668 34.6667C28.1668 33.47 27.1968 32.5 26.0002 32.5C24.8035 32.5 23.8335 33.47 23.8335 34.6667C23.8335 35.8633 24.8035 36.8333 26.0002 36.8333Z" fill="#0D0D0D"/>
</svg>
