<svg width="92" height="50" viewBox="0 0 92 50" fill="none" xmlns="http://www.w3.org/2000/svg">
<g filter="url(#filter0_ddd_304_2221)">
<path d="M0 16C0 7.16344 7.16344 0 16 0H68C76.8366 0 84 7.16344 84 16V23C84 31.8366 76.8366 39 68 39H16C7.16344 39 0 31.8366 0 23V16Z" fill="#F7FAF7" shape-rendering="crispEdges"/>
<g filter="url(#filter1_ddd_304_2221)">
<rect x="16" y="17" width="5" height="5" rx="2.5" fill="#00694B" fill-opacity="0.08" shape-rendering="crispEdges"/>
</g>
<path d="M29.95 26.18C28.966 26.18 28.126 26 27.43 25.64C26.734 25.28 26.116 24.758 25.576 24.074L26.728 22.922C27.124 23.474 27.58 23.894 28.096 24.182C28.612 24.458 29.248 24.596 30.004 24.596C30.748 24.596 31.342 24.434 31.786 24.11C32.242 23.786 32.47 23.342 32.47 22.778C32.47 22.31 32.362 21.932 32.146 21.644C31.93 21.356 31.636 21.122 31.264 20.942C30.904 20.75 30.508 20.582 30.076 20.438C29.644 20.282 29.212 20.12 28.78 19.952C28.348 19.772 27.952 19.556 27.592 19.304C27.232 19.04 26.938 18.698 26.71 18.278C26.494 17.858 26.386 17.33 26.386 16.694C26.386 15.986 26.554 15.386 26.89 14.894C27.238 14.39 27.706 14.006 28.294 13.742C28.894 13.466 29.566 13.328 30.31 13.328C31.126 13.328 31.858 13.49 32.506 13.814C33.154 14.126 33.682 14.54 34.09 15.056L32.938 16.208C32.566 15.776 32.164 15.452 31.732 15.236C31.312 15.02 30.826 14.912 30.274 14.912C29.602 14.912 29.068 15.062 28.672 15.362C28.276 15.65 28.078 16.058 28.078 16.586C28.078 17.006 28.186 17.348 28.402 17.612C28.63 17.864 28.924 18.08 29.284 18.26C29.644 18.44 30.04 18.608 30.472 18.764C30.916 18.908 31.354 19.07 31.786 19.25C32.218 19.43 32.614 19.658 32.974 19.934C33.334 20.21 33.622 20.57 33.838 21.014C34.066 21.446 34.18 21.992 34.18 22.652C34.18 23.756 33.796 24.62 33.028 25.244C32.272 25.868 31.246 26.18 29.95 26.18ZM37.4864 26V13.868H39.1064V26H37.4864ZM35.3804 18.926V17.45H41.2124V18.926H35.3804ZM46.4957 26.18C45.6437 26.18 44.8757 25.988 44.1917 25.604C43.5077 25.208 42.9677 24.674 42.5717 24.002C42.1757 23.33 41.9777 22.568 41.9777 21.716C41.9777 20.876 42.1697 20.12 42.5537 19.448C42.9497 18.776 43.4777 18.248 44.1377 17.864C44.8097 17.468 45.5597 17.27 46.3877 17.27C47.1797 17.27 47.8757 17.45 48.4757 17.81C49.0877 18.17 49.5617 18.668 49.8977 19.304C50.2457 19.94 50.4197 20.66 50.4197 21.464C50.4197 21.584 50.4137 21.716 50.4017 21.86C50.3897 21.992 50.3657 22.148 50.3297 22.328H43.1117V20.978H49.4657L48.8717 21.5C48.8717 20.924 48.7697 20.438 48.5657 20.042C48.3617 19.634 48.0737 19.322 47.7017 19.106C47.3297 18.878 46.8797 18.764 46.3517 18.764C45.7997 18.764 45.3137 18.884 44.8937 19.124C44.4737 19.364 44.1497 19.7 43.9217 20.132C43.6937 20.564 43.5797 21.074 43.5797 21.662C43.5797 22.262 43.6997 22.79 43.9397 23.246C44.1797 23.69 44.5217 24.038 44.9657 24.29C45.4097 24.53 45.9197 24.65 46.4957 24.65C46.9757 24.65 47.4137 24.566 47.8097 24.398C48.2177 24.23 48.5657 23.978 48.8537 23.642L49.8977 24.704C49.4897 25.184 48.9857 25.55 48.3857 25.802C47.7977 26.054 47.1677 26.18 46.4957 26.18ZM56.686 26.18C56.038 26.18 55.45 26.048 54.922 25.784C54.406 25.508 53.992 25.13 53.68 24.65C53.368 24.17 53.194 23.624 53.158 23.012V20.438C53.194 19.814 53.368 19.268 53.68 18.8C54.004 18.32 54.424 17.948 54.94 17.684C55.468 17.408 56.05 17.27 56.686 17.27C57.466 17.27 58.168 17.468 58.792 17.864C59.428 18.26 59.926 18.794 60.286 19.466C60.646 20.138 60.826 20.894 60.826 21.734C60.826 22.574 60.646 23.33 60.286 24.002C59.926 24.674 59.428 25.208 58.792 25.604C58.168 25.988 57.466 26.18 56.686 26.18ZM52.186 29.582V17.45H53.806V19.7L53.5 21.77L53.806 23.858V29.582H52.186ZM56.416 24.65C56.956 24.65 57.43 24.524 57.838 24.272C58.246 24.02 58.57 23.678 58.81 23.246C59.05 22.802 59.17 22.292 59.17 21.716C59.17 21.152 59.05 20.648 58.81 20.204C58.57 19.76 58.246 19.418 57.838 19.178C57.43 18.926 56.962 18.8 56.434 18.8C55.894 18.8 55.42 18.926 55.012 19.178C54.604 19.418 54.286 19.76 54.058 20.204C53.83 20.648 53.716 21.158 53.716 21.734C53.716 22.298 53.824 22.802 54.04 23.246C54.268 23.678 54.586 24.02 54.994 24.272C55.414 24.524 55.888 24.65 56.416 24.65ZM68.3328 26V13.508H70.0068V26H68.3328ZM65.7768 15.02V13.508H69.8268V15.02H65.7768Z" fill="#00694B"/>
</g>
<defs>
<filter id="filter0_ddd_304_2221" x="-8" y="-5" width="100" height="55" filterUnits="userSpaceOnUse" color-interpolation-filters="sRGB">
<feFlood flood-opacity="0" result="BackgroundImageFix"/>
<feColorMatrix in="SourceAlpha" type="matrix" values="0 0 0 0 0 0 0 0 0 0 0 0 0 0 0 0 0 0 127 0" result="hardAlpha"/>
<feOffset dy="6"/>
<feGaussianBlur stdDeviation="2"/>
<feComposite in2="hardAlpha" operator="out"/>
<feColorMatrix type="matrix" values="0 0 0 0 0 0 0 0 0 0.411765 0 0 0 0 0.294118 0 0 0 0.08 0"/>
<feBlend mode="normal" in2="BackgroundImageFix" result="effect1_dropShadow_304_2221"/>
<feColorMatrix in="SourceAlpha" type="matrix" values="0 0 0 0 0 0 0 0 0 0 0 0 0 0 0 0 0 0 127 0" result="hardAlpha"/>
<feOffset dy="3"/>
<feGaussianBlur stdDeviation="4"/>
<feComposite in2="hardAlpha" operator="out"/>
<feColorMatrix type="matrix" values="0 0 0 0 0 0 0 0 0 0.411765 0 0 0 0 0.294118 0 0 0 0.2 0"/>
<feBlend mode="normal" in2="effect1_dropShadow_304_2221" result="effect2_dropShadow_304_2221"/>
<feColorMatrix in="SourceAlpha" type="matrix" values="0 0 0 0 0 0 0 0 0 0 0 0 0 0 0 0 0 0 127 0" result="hardAlpha"/>
<feOffset dy="2"/>
<feGaussianBlur stdDeviation="1.5"/>
<feComposite in2="hardAlpha" operator="out"/>
<feColorMatrix type="matrix" values="0 0 0 0 0.356863 0 0 0 0 0.576471 0 0 0 0 0.254902 0 0 0 0.75 0"/>
<feBlend mode="normal" in2="effect2_dropShadow_304_2221" result="effect3_dropShadow_304_2221"/>
<feBlend mode="normal" in="SourceGraphic" in2="effect3_dropShadow_304_2221" result="shape"/>
</filter>
<filter id="filter1_ddd_304_2221" x="12" y="17" width="13" height="21" filterUnits="userSpaceOnUse" color-interpolation-filters="sRGB">
<feFlood flood-opacity="0" result="BackgroundImageFix"/>
<feColorMatrix in="SourceAlpha" type="matrix" values="0 0 0 0 0 0 0 0 0 0 0 0 0 0 0 0 0 0 127 0" result="hardAlpha"/>
<feMorphology radius="2" operator="erode" in="SourceAlpha" result="effect1_dropShadow_304_2221"/>
<feOffset dy="12"/>
<feGaussianBlur stdDeviation="3"/>
<feComposite in2="hardAlpha" operator="out"/>
<feColorMatrix type="matrix" values="0 0 0 0 0.54902 0 0 0 0 1 0 0 0 0 0.184314 0 0 0 0.12 0"/>
<feBlend mode="normal" in2="BackgroundImageFix" result="effect1_dropShadow_304_2221"/>
<feColorMatrix in="SourceAlpha" type="matrix" values="0 0 0 0 0 0 0 0 0 0 0 0 0 0 0 0 0 0 127 0" result="hardAlpha"/>
<feMorphology radius="1.33333" operator="erode" in="SourceAlpha" result="effect2_dropShadow_304_2221"/>
<feOffset dy="2.74624"/>
<feGaussianBlur stdDeviation="0.68656"/>
<feComposite in2="hardAlpha" operator="out"/>
<feColorMatrix type="matrix" values="0 0 0 0 0.54902 0 0 0 0 1 0 0 0 0 0.184314 0 0 0 0.09 0"/>
<feBlend mode="normal" in2="effect1_dropShadow_304_2221" result="effect2_dropShadow_304_2221"/>
<feColorMatrix in="SourceAlpha" type="matrix" values="0 0 0 0 0 0 0 0 0 0 0 0 0 0 0 0 0 0 127 0" result="hardAlpha"/>
<feMorphology radius="0.666667" operator="erode" in="SourceAlpha" result="effect3_dropShadow_304_2221"/>
<feOffset dy="0.722625"/>
<feGaussianBlur stdDeviation="0.180656"/>
<feComposite in2="hardAlpha" operator="out"/>
<feColorMatrix type="matrix" values="0 0 0 0 0.54902 0 0 0 0 1 0 0 0 0 0.184314 0 0 0 0.08 0"/>
<feBlend mode="normal" in2="effect2_dropShadow_304_2221" result="effect3_dropShadow_304_2221"/>
<feBlend mode="normal" in="SourceGraphic" in2="effect3_dropShadow_304_2221" result="shape"/>
</filter>
</defs>
</svg>
